  0
SECTION
  2
HEADER
  9
$ACADVER
  1
AC1009
  9
$DWGCODEPAGE
  3
ansi_1252
  9
$INSBASE
 10
0.0
 20
0.0
 30
0.0
  9
$EXTMIN
 10
0.9072584240406348
 20
0.9046696967403274
 30
0.0
  9
$EXTMAX
 10
2166.528935576449
 20
992.1099957021987
 30
0.0
  9
$LIMMIN
 10
0.0
 20
0.0
  9
$LIMMAX
 10
12.0
 20
9.0
  9
$ORTHOMODE
 70
     0
  9
$REGENMODE
 70
     1
  9
$FILLMODE
 70
     1
  9
$QTEXTMODE
 70
     0
  9
$MIRRTEXT
 70
     1
  9
$DRAGMODE
 70
     2
  9
$LTSCALE
 40
1.0
  9
$OSMODE
 70
    37
  9
$ATTMODE
 70
     1
  9
$TEXTSIZE
 40
0.2
  9
$TRACEWID
 40
0.05
  9
$TEXTSTYLE
  7
STANDARD
  9
$CLAYER
  8
0
  9
$CELTYPE
  6
BYLAYER
  9
$CECOLOR
 62
   256
  9
$DIMSCALE
 40
1.0
  9
$DIMASZ
 40
0.18
  9
$DIMEXO
 40
0.0625
  9
$DIMDLI
 40
0.38
  9
$DIMRND
 40
0.0
  9
$DIMDLE
 40
0.0
  9
$DIMEXE
 40
0.18
  9
$DIMTP
 40
0.0
  9
$DIMTM
 40
0.0
  9
$DIMTXT
 40
0.18
  9
$DIMCEN
 40
0.09
  9
$DIMTSZ
 40
0.0
  9
$DIMTOL
 70
     0
  9
$DIMLIM
 70
     0
  9
$DIMTIH
 70
     1
  9
$DIMTOH
 70
     1
  9
$DIMSE1
 70
     0
  9
$DIMSE2
 70
     0
  9
$DIMTAD
 70
     0
  9
$DIMZIN
 70
     0
  9
$DIMBLK
  1

  9
$DIMASO
 70
     1
  9
$DIMSHO
 70
     1
  9
$DIMPOST
  1

  9
$DIMAPOST
  1

  9
$DIMALT
 70
     0
  9
$DIMALTD
 70
     2
  9
$DIMALTF
 40
25.4
  9
$DIMLFAC
 40
1.0
  9
$DIMTOFL
 70
     0
  9
$DIMTVP
 40
0.0
  9
$DIMTIX
 70
     0
  9
$DIMSOXD
 70
     0
  9
$DIMSAH
 70
     0
  9
$DIMBLK1
  1

  9
$DIMBLK2
  1

  9
$DIMSTYLE
  2
STANDARD
  9
$DIMCLRD
 70
     0
  9
$DIMCLRE
 70
     0
  9
$DIMCLRT
 70
     0
  9
$DIMTFAC
 40
1.0
  9
$DIMGAP
 40
0.09
  9
$LUNITS
 70
     2
  9
$LUPREC
 70
     4
  9
$SKETCHINC
 40
0.1
  9
$FILLETRAD
 40
0.5
  9
$AUNITS
 70
     0
  9
$AUPREC
 70
     0
  9
$MENU
  1
.
  9
$ELEVATION
 40
0.0
  9
$PELEVATION
 40
0.0
  9
$THICKNESS
 40
0.0
  9
$LIMCHECK
 70
     0
  9
$CHAMFERA
 40
0.0
  9
$CHAMFERB
 40
0.0
  9
$SKPOLY
 70
     0
  9
$TDCREATE
 40
2454910.5
  9
$TDUPDATE
 40
2459163.479475787
  9
$TDINDWG
 40
0.0000000116
  9
$TDUSRTIMER
 40
0.0000000116
  9
$USRTIMER
 70
     1
  9
$ANGBASE
 50
0.0
  9
$ANGDIR
 70
     0
  9
$PDMODE
 70
     0
  9
$PDSIZE
 40
0.0
  9
$PLINEWID
 40
0.0
  9
$COORDS
 70
     1
  9
$SPLFRAME
 70
     0
  9
$SPLINETYPE
 70
     6
  9
$SPLINESEGS
 70
     8
  9
$ATTDIA
 70
     0
  9
$ATTREQ
 70
     1
  9
$HANDLING
 70
     1
  9
$HANDSEED
  5
61B
  9
$SURFTAB1
 70
     6
  9
$SURFTAB2
 70
     6
  9
$SURFTYPE
 70
     6
  9
$SURFU
 70
     6
  9
$SURFV
 70
     6
  9
$UCSNAME
  2

  9
$UCSORG
 10
0.0
 20
0.0
 30
0.0
  9
$UCSXDIR
 10
1.0
 20
0.0
 30
0.0
  9
$UCSYDIR
 10
0.0
 20
1.0
 30
0.0
  9
$PUCSNAME
  2

  9
$PUCSORG
 10
0.0
 20
0.0
 30
0.0
  9
$PUCSXDIR
 10
1.0
 20
0.0
 30
0.0
  9
$PUCSYDIR
 10
0.0
 20
1.0
 30
0.0
  9
$USERI1
 70
     0
  9
$USERI2
 70
     0
  9
$USERI3
 70
     0
  9
$USERI4
 70
     0
  9
$USERI5
 70
     0
  9
$USERR1
 40
0.0
  9
$USERR2
 40
0.0
  9
$USERR3
 40
0.0
  9
$USERR4
 40
0.0
  9
$USERR5
 40
0.0
  9
$WORLDVIEW
 70
     1
  9
$SHADEDGE
 70
     3
  9
$SHADEDIF
 70
    70
  9
$TILEMODE
 70
     1
  9
$MAXACTVP
 70
    64
  9
$PLIMCHECK
 70
     0
  9
$PEXTMIN
 10
1.000000000000000E+20
 20
1.000000000000000E+20
 30
1.000000000000000E+20
  9
$PEXTMAX
 10
-1.000000000000000E+20
 20
-1.000000000000000E+20
 30
-1.000000000000000E+20
  9
$PLIMMIN
 10
0.0
 20
0.0
  9
$PLIMMAX
 10
12.0
 20
9.0
  9
$UNITMODE
 70
     0
  9
$VISRETAIN
 70
     1
  9
$PLINEGEN
 70
     0
  9
$PSLTSCALE
 70
     1
  0
ENDSEC
  0
SECTION
  2
TABLES
  0
TABLE
  2
VPORT
 70
     1
  0
VPORT
  2
*ACTIVE
 70
     0
 10
0.0
 20
0.0
 11
1.0
 21
1.0
 12
10.42990654205607
 22
4.5
 13
0.0
 23
0.0
 14
0.5
 24
0.5
 15
0.5
 25
0.5
 16
0.0
 26
0.0
 36
1.0
 17
0.0
 27
0.0
 37
0.0
 40
9.0
 41
1.972972972850329
 42
50.0
 43
0.0
 44
0.0
 50
0.0
 51
0.0
 71
     0
 72
   100
 73
     1
 74
     3
 75
     0
 76
     0
 77
     0
 78
     0
  0
ENDTAB
  0
TABLE
  2
LTYPE
 70
     2
  0
LTYPE
  2
CONTINUOUS
 70
     0
  3
Solid line
 72
    65
 73
     0
 40
0.0
  0
LTYPE
  2
CONTINUOUS2
 70
     0
  3
Solid Line
 72
    65
 73
     0
 40
0.0
  0
ENDTAB
  0
TABLE
  2
LAYER
 70
     2
  0
LAYER
  2
0
 70
     0
 62
     7
  6
CONTINUOUS
  0
LAYER
  2
LAYER_1
 70
     0
 62
    18
  6
CONTINUOUS
  0
ENDTAB
  0
TABLE
  2
STYLE
 70
     1
  0
STYLE
  2
STANDARD
 70
     0
 40
0.0
 41
1.0
 50
0.0
 71
     0
 42
0.2
  3
txt
  4

  0
ENDTAB
  0
TABLE
  2
VIEW
 70
     0
  0
ENDTAB
  0
TABLE
  2
UCS
 70
     0
  0
ENDTAB
  0
TABLE
  2
APPID
 70
     1
  0
APPID
  2
ACAD
 70
     0
  0
ENDTAB
  0
TABLE
  2
DIMSTYLE
 70
     1
  0
DIMSTYLE
  2
STANDARD
 70
     0
  3

  4

  5

  6

  7

 40
1.0
 41
0.18
 42
0.0625
 43
0.38
 44
0.18
 45
0.0
 46
0.0
 47
0.0
 48
0.0
140
0.18
141
0.09
142
0.0
143
25.4
144
1.0
145
0.0
146
1.0
147
0.09
 71
     0
 72
     0
 73
     1
 74
     1
 75
     0
 76
     0
 77
     0
 78
     0
170
     0
171
     2
172
     0
173
     0
174
     0
175
     0
176
     0
177
     0
178
     0
  0
ENDTAB
  0
ENDSEC
  0
SECTION
  2
BLOCKS
  0
BLOCK
  8
0
  2
$MODEL_SPACE
 70
     0
 10
0.0
 20
0.0
 30
0.0
  3
$MODEL_SPACE
  1

  0
ENDBLK
  5
21
  8
0
  0
BLOCK
 67
     1
  8
0
  2
$PAPER_SPACE
 70
     0
 10
0.0
 20
0.0
 30
0.0
  3
$PAPER_SPACE
  1

  0
ENDBLK
  5
1D
 67
     1
  8
0
  0
ENDSEC
  0
SECTION
  2
ENTITIES
  0
POLYLINE
  5
70
  8
LAYER_1
 66
     1
 10
0.0
 20
0.0
 30
0.0
 70
     1
  0
VERTEX
  5
78
  8
LAYER_1
 10
12.24667926364475
 20
990.5259304470485
 30
0.0
  0
VERTEX
  5
79
  8
LAYER_1
 10
11.8195318619226
 20
987.8492470852768
 30
0.0
  0
VERTEX
  5
7A
  8
LAYER_1
 10
11.4007408727608
 20
985.1720989707026
 30
0.0
  0
VERTEX
  5
7B
  8
LAYER_1
 10
10.99029708651807
 20
982.4945061534283
 30
0.0
  0
VERTEX
  5
7C
  8
LAYER_1
 10
10.58819129355314
 20
979.8164886835572
 30
0.0
  0
VERTEX
  5
7D
  8
LAYER_1
 10
10.19441428422475
 20
977.138066611192
 30
0.0
  0
VERTEX
  5
7E
  8
LAYER_1
 10
9.808956848891599
 20
974.4592599864359
 30
0.0
  0
VERTEX
  5
7F
  8
LAYER_1
 10
9.431809777912433
 20
971.7800888593915
 30
0.0
  0
VERTEX
  5
80
  8
LAYER_1
 10
9.062963861645969
 20
969.100573280162
 30
0.0
  0
VERTEX
  5
81
  8
LAYER_1
 10
8.702409890450935
 20
966.4207332988503
 30
0.0
  0
VERTEX
  5
82
  8
LAYER_1
 10
8.350138654686056
 20
963.7405889655593
 30
0.0
  0
VERTEX
  5
83
  8
LAYER_1
 10
8.006140944710058
 20
961.0601603303917
 30
0.0
  0
VERTEX
  5
84
  8
LAYER_1
 10
7.670407550881666
 20
958.3794674434507
 30
0.0
  0
VERTEX
  5
85
  8
LAYER_1
 10
7.342929263559606
 20
955.6985303548391
 30
0.0
  0
VERTEX
  5
86
  8
LAYER_1
 10
7.023696873102605
 20
953.0173691146599
 30
0.0
  0
VERTEX
  5
87
  8
LAYER_1
 10
6.712701169869388
 20
950.336003773016
 30
0.0
  0
VERTEX
  5
88
  8
LAYER_1
 10
6.40993294421868
 20
947.6544543800105
 30
0.0
  0
VERTEX
  5
89
  8
LAYER_1
 10
6.115382986509206
 20
944.9727409857461
 30
0.0
  0
VERTEX
  5
8A
  8
LAYER_1
 10
5.829042087099694
 20
942.2908836403258
 30
0.0
  0
VERTEX
  5
8B
  8
LAYER_1
 10
5.550901036348868
 20
939.6089023938525
 30
0.0
  0
VERTEX
  5
8C
  8
LAYER_1
 10
5.280950624615453
 20
936.9268172964291
 30
0.0
  0
VERTEX
  5
8D
  8
LAYER_1
 10
5.019181642258179
 20
934.2446483981587
 30
0.0
  0
VERTEX
  5
8E
  8
LAYER_1
 10
4.765584879635766
 20
931.5624157491443
 30
0.0
  0
VERTEX
  5
8F
  8
LAYER_1
 10
4.520151127106941
 20
928.8801393994884
 30
0.0
  0
VERTEX
  5
90
  8
LAYER_1
 10
4.282871175030433
 20
926.1978393992943
 30
0.0
  0
VERTEX
  5
91
  8
LAYER_1
 10
4.053735813764965
 20
923.5155357986648
 30
0.0
  0
VERTEX
  5
92
  8
LAYER_1
 10
3.832735833669264
 20
920.8332486477028
 30
0.0
  0
VERTEX
  5
93
  8
LAYER_1
 10
3.619862025102055
 20
918.1509979965113
 30
0.0
  0
VERTEX
  5
94
  8
LAYER_1
 10
3.415105178422063
 20
915.4688038951931
 30
0.0
  0
VERTEX
  5
95
  8
LAYER_1
 10
3.218456083988014
 20
912.7866863938514
 30
0.0
  0
VERTEX
  5
96
  8
LAYER_1
 10
3.029905532158634
 20
910.1046655425889
 30
0.0
  0
VERTEX
  5
97
  8
LAYER_1
 10
2.849444313292649
 20
907.4227613915086
 30
0.0
  0
VERTEX
  5
98
  8
LAYER_1
 10
2.677063217748784
 20
904.7409939907134
 30
0.0
  0
VERTEX
  5
99
  8
LAYER_1
 10
2.512753035885765
 20
902.0593833903063
 30
0.0
  0
VERTEX
  5
9A
  8
LAYER_1
 10
2.356504558062319
 20
899.3779496403902
 30
0.0
  0
VERTEX
  5
9B
  8
LAYER_1
 10
2.20830857463717
 20
896.6967127910679
 30
0.0
  0
VERTEX
  5
9C
  8
LAYER_1
 10
2.068155875969044
 20
894.0156928924425
 30
0.0
  0
VERTEX
  5
9D
  8
LAYER_1
 10
1.936037252416666
 20
891.334909994617
 30
0.0
  0
VERTEX
  5
9E
  8
LAYER_1
 10
1.811943494338764
 20
888.654384147694
 30
0.0
  0
VERTEX
  5
9F
  8
LAYER_1
 10
1.695865392094061
 20
885.9741354017767
 30
0.0
  0
VERTEX
  5
A0
  8
LAYER_1
 10
1.587793736041284
 20
883.2941838069679
 30
0.0
  0
VERTEX
  5
A1
  8
LAYER_1
 10
1.487719316539159
 20
880.6145494133707
 30
0.0
  0
VERTEX
  5
A2
  8
LAYER_1
 10
1.395632923946412
 20
877.9352522710878
 30
0.0
  0
VERTEX
  5
A3
  8
LAYER_1
 10
1.311525348621767
 20
875.2563124302224
 30
0.0
  0
VERTEX
  5
A4
  8
LAYER_1
 10
1.235387380923951
 20
872.5777499408772
 30
0.0
  0
VERTEX
  5
A5
  8
LAYER_1
 10
1.167209811211689
 20
869.8995848531551
 30
0.0
  0
VERTEX
  5
A6
  8
LAYER_1
 10
1.106983429843707
 20
867.2218372171594
 30
0.0
  0
VERTEX
  5
A7
  8
LAYER_1
 10
1.054699027178732
 20
864.5445270829925
 30
0.0
  0
VERTEX
  5
A8
  8
LAYER_1
 10
1.010347393575487
 20
861.8676745007579
 30
0.0
  0
VERTEX
  5
A9
  8
LAYER_1
 10
0.9739193193926996
 20
859.191299520558
 30
0.0
  0
VERTEX
  5
AA
  8
LAYER_1
 10
0.9454055949890949
 20
856.5154221924961
 30
0.0
  0
VERTEX
  5
AB
  8
LAYER_1
 10
0.9247970107233988
 20
853.8400625666749
 30
0.0
  0
VERTEX
  5
AC
  8
LAYER_1
 10
0.912084356954337
 20
851.1652406931973
 30
0.0
  0
VERTEX
  5
AD
  8
LAYER_1
 10
0.9072584240406348
 20
848.4909766221666
 30
0.0
  0
VERTEX
  5
AE
  8
LAYER_1
 10
0.9103100023410184
 20
845.8172904036854
 30
0.0
  0
VERTEX
  5
AF
  8
LAYER_1
 10
0.9212298822142132
 20
843.1442020878567
 30
0.0
  0
VERTEX
  5
B0
  8
LAYER_1
 10
0.940008854018945
 20
840.4717317247835
 30
0.0
  0
VERTEX
  5
B1
  8
LAYER_1
 10
0.9666377081139393
 20
837.7998993645687
 30
0.0
  0
VERTEX
  5
B2
  8
LAYER_1
 10
1.001107234857922
 20
835.128725057315
 30
0.0
  0
VERTEX
  5
B3
  8
LAYER_1
 10
1.043408224609619
 20
832.4582288531257
 30
0.0
  0
VERTEX
  5
B4
  8
LAYER_1
 10
1.093531467727755
 20
829.7884308021034
 30
0.0
  0
VERTEX
  5
B5
  8
LAYER_1
 10
1.151467754571057
 20
827.1193509543513
 30
0.0
  0
VERTEX
  5
B6
  8
LAYER_1
 10
1.21720787549825
 20
824.4510093599722
 30
0.0
  0
VERTEX
  5
B7
  8
LAYER_1
 10
1.290742620868059
 20
821.783426069069
 30
0.0
  0
VERTEX
  5
B8
  8
LAYER_1
 10
1.372062781039212
 20
819.1166211317448
 30
0.0
  0
VERTEX
  5
B9
  8
LAYER_1
 10
1.461159146370432
 20
816.4506145981023
 30
0.0
  0
VERTEX
  5
BA
  8
LAYER_1
 10
1.558022507220446
 20
813.7854265182445
 30
0.0
  0
VERTEX
  5
BB
  8
LAYER_1
 10
1.66264365394798
 20
811.1210769422745
 30
0.0
  0
VERTEX
  5
BC
  8
LAYER_1
 10
1.775013376911759
 20
808.4575859202951
 30
0.0
  0
VERTEX
  5
BD
  8
LAYER_1
 10
1.895122466470509
 20
805.7949735024091
 30
0.0
  0
VERTEX
  5
BE
  8
LAYER_1
 10
2.022961712982955
 20
803.1332597387196
 30
0.0
  0
VERTEX
  5
BF
  8
LAYER_1
 10
2.158521906807824
 20
800.4724646793295
 30
0.0
  0
VERTEX
  5
C0
  8
LAYER_1
 10
2.30179383830384
 20
797.8126083743418
 30
0.0
  0
VERTEX
  5
C1
  8
LAYER_1
 10
2.45276829782973
 20
795.1537108738594
 30
0.0
  0
VERTEX
  5
C2
  8
LAYER_1
 10
2.61143607574422
 20
792.495792227985
 30
0.0
  0
VERTEX
  5
C3
  8
LAYER_1
 10
2.777787962406034
 20
789.8388724868217
 30
0.0
  0
VERTEX
  5
C4
  8
LAYER_1
 10
2.9518147481739
 20
787.1829717004725
 30
0.0
  0
VERTEX
  5
C5
  8
LAYER_1
 10
3.133507223406542
 20
784.5281099190402
 30
0.0
  0
VERTEX
  5
C6
  8
LAYER_1
 10
3.322856178462686
 20
781.874307192628
 30
0.0
  0
VERTEX
  5
C7
  8
LAYER_1
 10
3.519852403701058
 20
779.2215835713384
 30
0.0
  0
VERTEX
  5
C8
  8
LAYER_1
 10
3.724486689480384
 20
776.5699591052747
 30
0.0
  0
VERTEX
  5
C9
  8
LAYER_1
 10
3.936749826159388
 20
773.9194538445397
 30
0.0
  0
VERTEX
  5
CA
  8
LAYER_1
 10
4.156632604096798
 20
771.2700878392362
 30
0.0
  0
VERTEX
  5
CB
  8
LAYER_1
 10
4.384125813651337
 20
768.6218811394674
 30
0.0
  0
VERTEX
  5
CC
  8
LAYER_1
 10
4.619220245181733
 20
765.9748537953359
 30
0.0
  0
VERTEX
  5
CD
  8
LAYER_1
 10
4.861906689046712
 20
763.3290258569449
 30
0.0
  0
VERTEX
  5
CE
  8
LAYER_1
 10
5.112175935604998
 20
760.6844173743972
 30
0.0
  0
VERTEX
  5
CF
  8
LAYER_1
 10
5.370018775215317
 20
758.0410483977957
 30
0.0
  0
VERTEX
  5
D0
  8
LAYER_1
 10
5.635425998236395
 20
755.3989389772437
 30
0.0
  0
VERTEX
  5
D1
  8
LAYER_1
 10
5.908388395026957
 20
752.7581091628435
 30
0.0
  0
VERTEX
  5
D2
  8
LAYER_1
 10
6.188896755945731
 20
750.1185790046984
 30
0.0
  0
VERTEX
  5
D3
  8
LAYER_1
 10
6.476941871351441
 20
747.4803685529115
 30
0.0
  0
VERTEX
  5
D4
  8
LAYER_1
 10
6.772514531602811
 20
744.8434978575854
 30
0.0
  0
VERTEX
  5
D5
  8
LAYER_1
 10
7.07560552705857
 20
742.207986968823
 30
0.0
  0
VERTEX
  5
D6
  8
LAYER_1
 10
7.386205648077441
 20
739.5738559367276
 30
0.0
  0
VERTEX
  5
D7
  8
LAYER_1
 10
7.704305685018152
 20
736.9411248114018
 30
0.0
  0
VERTEX
  5
D8
  8
LAYER_1
 10
8.029896428239427
 20
734.3098136429487
 30
0.0
  0
VERTEX
  5
D9
  8
LAYER_1
 10
8.362968668099992
 20
731.6799424814712
 30
0.0
  0
VERTEX
  5
DA
  8
LAYER_1
 10
8.703513194958571
 20
729.051531377072
 30
0.0
  0
VERTEX
  5
DB
  8
LAYER_1
 10
9.051520799173895
 20
726.4246003798544
 30
0.0
  0
VERTEX
  5
DC
  8
LAYER_1
 10
9.406982271104685
 20
723.799169539921
 30
0.0
  0
VERTEX
  5
DD
  8
LAYER_1
 10
9.769888401109668
 20
721.1752589073749
 30
0.0
  0
VERTEX
  5
DE
  8
LAYER_1
 10
10.14022997954757
 20
718.552888532319
 30
0.0
  0
VERTEX
  5
DF
  8
LAYER_1
 10
10.51799779677712
 20
715.9320784648564
 30
0.0
  0
VERTEX
  5
E0
  8
LAYER_1
 10
10.90318264315703
 20
713.3128487550898
 30
0.0
  0
VERTEX
  5
E1
  8
LAYER_1
 10
11.29577530904605
 20
710.6952194531223
 30
0.0
  0
VERTEX
  5
E2
  8
LAYER_1
 10
11.69576658480288
 20
708.0792106090565
 30
0.0
  0
VERTEX
  5
E3
  8
LAYER_1
 10
12.10314726078626
 20
705.4648422729957
 30
0.0
  0
VERTEX
  5
E4
  8
LAYER_1
 10
12.51790812735491
 20
702.8521344950427
 30
0.0
  0
VERTEX
  5
E5
  8
LAYER_1
 10
12.94003997486756
 20
700.2411073253005
 30
0.0
  0
VERTEX
  5
E6
  8
LAYER_1
 10
13.36953359368294
 20
697.631780813872
 30
0.0
  0
VERTEX
  5
E7
  8
LAYER_1
 10
13.80637977415977
 20
695.02417501086
 30
0.0
  0
VERTEX
  5
E8
  8
LAYER_1
 10
14.25056930665677
 20
692.4183099663674
 30
0.0
  0
VERTEX
  5
E9
  8
LAYER_1
 10
14.70209298153267
 20
689.8142057304973
 30
0.0
  0
VERTEX
  5
EA
  8
LAYER_1
 10
15.1609415891462
 20
687.2118823533525
 30
0.0
  0
VERTEX
  5
EB
  8
LAYER_1
 10
15.62710591985608
 20
684.6113598850361
 30
0.0
  0
VERTEX
  5
EC
  8
LAYER_1
 10
16.10057676402104
 20
682.012658375651
 30
0.0
  0
VERTEX
  5
ED
  8
LAYER_1
 10
16.58134491199981
 20
679.4157978752999
 30
0.0
  0
VERTEX
  5
EE
  8
LAYER_1
 10
17.0694011541511
 20
676.8207984340861
 30
0.0
  0
VERTEX
  5
EF
  8
LAYER_1
 10
18.06734108240618
 20
671.6364629294812
 30
0.0
  0
VERTEX
  5
F0
  8
LAYER_1
 10
19.09432287165609
 20
666.4598122626599
 30
0.0
  0
VERTEX
  5
F1
  8
LAYER_1
 10
20.15027284477063
 20
661.2910068344454
 30
0.0
  0
VERTEX
  5
F2
  8
LAYER_1
 10
21.23511732461961
 20
656.1302070456616
 30
0.0
  0
VERTEX
  5
F3
  8
LAYER_1
 10
22.34878263407283
 20
650.9775732971314
 30
0.0
  0
VERTEX
  5
F4
  8
LAYER_1
 10
23.4911950960001
 20
645.8332659896785
 30
0.0
  0
VERTEX
  5
F5
  8
LAYER_1
 10
24.66228103327122
 20
640.6974455241265
 30
0.0
  0
VERTEX
  5
F6
  8
LAYER_1
 10
25.86196676875601
 20
635.5702723012986
 30
0.0
  0
VERTEX
  5
F7
  8
LAYER_1
 10
27.09017862532426
 20
630.4519067220182
 30
0.0
  0
VERTEX
  5
F8
  8
LAYER_1
 10
28.34684292584579
 20
625.3425091871088
 30
0.0
  0
VERTEX
  5
F9
  8
LAYER_1
 10
29.63188599319039
 20
620.2422400973941
 30
0.0
  0
VERTEX
  5
FA
  8
LAYER_1
 10
30.94523415022787
 20
615.1512598536972
 30
0.0
  0
VERTEX
  5
FB
  8
LAYER_1
 10
32.28681371982804
 20
610.0697288568417
 30
0.0
  0
VERTEX
  5
FC
  8
LAYER_1
 10
33.6565510248607
 20
604.997807507651
 30
0.0
  0
VERTEX
  5
FD
  8
LAYER_1
 10
35.05437238819566
 20
599.9356562069485
 30
0.0
  0
VERTEX
  5
FE
  8
LAYER_1
 10
36.48020413270272
 20
594.8834353555577
 30
0.0
  0
VERTEX
  5
FF
  8
LAYER_1
 10
37.9339725812517
 20
589.841305354302
 30
0.0
  0
VERTEX
  5
100
  8
LAYER_1
 10
39.4156040567124
 20
584.8094266040049
 30
0.0
  0
VERTEX
  5
101
  8
LAYER_1
 10
40.92502488195461
 20
579.7879595054897
 30
0.0
  0
VERTEX
  5
102
  8
LAYER_1
 10
42.46216137984815
 20
574.77706445958
 30
0.0
  0
VERTEX
  5
103
  8
LAYER_1
 10
44.02693987326282
 20
569.776901867099
 30
0.0
  0
VERTEX
  5
104
  8
LAYER_1
 10
45.61928668506843
 20
564.7876321288705
 30
0.0
  0
VERTEX
  5
105
  8
LAYER_1
 10
47.23912813813477
 20
559.8094156457176
 30
0.0
  0
VERTEX
  5
106
  8
LAYER_1
 10
48.88639055533167
 20
554.842412818464
 30
0.0
  0
VERTEX
  5
107
  8
LAYER_1
 10
50.56100025952892
 20
549.886784047933
 30
0.0
  0
VERTEX
  5
108
  8
LAYER_1
 10
52.26288357359634
 20
544.9426897349481
 30
0.0
  0
VERTEX
  5
109
  8
LAYER_1
 10
53.99196682040372
 20
540.0102902803326
 30
0.0
  0
VERTEX
  5
10A
  8
LAYER_1
 10
55.74817632282086
 20
535.0897460849102
 30
0.0
  0
VERTEX
  5
10B
  8
LAYER_1
 10
57.53143840371759
 20
530.181217549504
 30
0.0
  0
VERTEX
  5
10C
  8
LAYER_1
 10
59.34167938596369
 20
525.2848650749378
 30
0.0
  0
VERTEX
  5
10D
  8
LAYER_1
 10
61.17882559242898
 20
520.4008490620347
 30
0.0
  0
VERTEX
  5
10E
  8
LAYER_1
 10
63.04280334598327
 20
515.5293299116184
 30
0.0
  0
VERTEX
  5
10F
  8
LAYER_1
 10
64.93353896949635
 20
510.6704680245123
 30
0.0
  0
VERTEX
  5
110
  8
LAYER_1
 10
66.85095878583805
 20
505.8244238015396
 30
0.0
  0
VERTEX
  5
111
  8
LAYER_1
 10
68.79498911787815
 20
500.9913576435241
 30
0.0
  0
VERTEX
  5
112
  8
LAYER_1
 10
70.76555628848645
 20
496.171429951289
 30
0.0
  0
VERTEX
  5
113
  8
LAYER_1
 10
72.76258662053279
 20
491.3648011256578
 30
0.0
  0
VERTEX
  5
114
  8
LAYER_1
 10
74.78600643688695
 20
486.5716315674539
 30
0.0
  0
VERTEX
  5
115
  8
LAYER_1
 10
76.83574206041874
 20
481.7920816775008
 30
0.0
  0
VERTEX
  5
116
  8
LAYER_1
 10
78.91171981399796
 20
477.0263118566219
 30
0.0
  0
VERTEX
  5
117
  8
LAYER_1
 10
81.01386602049443
 20
472.2744825056407
 30
0.0
  0
VERTEX
  5
118
  8
LAYER_1
 10
83.14210700277795
 20
467.5367540253805
 30
0.0
  0
VERTEX
  5
119
  8
LAYER_1
 10
85.2963690837183
 20
462.8132868166648
 30
0.0
  0
VERTEX
  5
11A
  8
LAYER_1
 10
87.47657858618533
 20
458.1042412803171
 30
0.0
  0
VERTEX
  5
11B
  8
LAYER_1
 10
89.68266183304883
 20
453.4097778171608
 30
0.0
  0
VERTEX
  5
11C
  8
LAYER_1
 10
91.91454514717859
 20
448.7300568280194
 30
0.0
  0
VERTEX
  5
11D
  8
LAYER_1
 10
94.17215485144442
 20
444.0652387137163
 30
0.0
  0
VERTEX
  5
11E
  8
LAYER_1
 10
96.45541726871613
 20
439.4154838750749
 30
0.0
  0
VERTEX
  5
11F
  8
LAYER_1
 10
98.76425872186354
 20
434.7809527129186
 30
0.0
  0
VERTEX
  5
120
  8
LAYER_1
 10
101.0986055337565
 20
430.161805628071
 30
0.0
  0
VERTEX
  5
121
  8
LAYER_1
 10
103.4583840272646
 20
425.5582030213553
 30
0.0
  0
VERTEX
  5
122
  8
LAYER_1
 10
105.8435205252579
 20
420.9703052935952
 30
0.0
  0
VERTEX
  5
123
  8
LAYER_1
 10
108.2539413506061
 20
416.398272845614
 30
0.0
  0
VERTEX
  5
124
  8
LAYER_1
 10
110.689572826179
 20
411.8422660782351
 30
0.0
  0
VERTEX
  5
125
  8
LAYER_1
 10
113.1503412748465
 20
407.3024453922821
 30
0.0
  0
VERTEX
  5
126
  8
LAYER_1
 10
115.6361730194783
 20
402.7789711885783
 30
0.0
  0
VERTEX
  5
127
  8
LAYER_1
 10
118.1469943829442
 20
398.2720038679471
 30
0.0
  0
VERTEX
  5
128
  8
LAYER_1
 10
120.682731688114
 20
393.7817038312121
 30
0.0
  0
VERTEX
  5
129
  8
LAYER_1
 10
123.2433112578576
 20
389.3082314791966
 30
0.0
  0
VERTEX
  5
12A
  8
LAYER_1
 10
125.8286594150447
 20
384.8517472127241
 30
0.0
  0
VERTEX
  5
12B
  8
LAYER_1
 10
128.4387024825452
 20
380.4124114326181
 30
0.0
  0
VERTEX
  5
12C
  8
LAYER_1
 10
129.7529615835597
 20
378.1992243502098
 30
0.0
  0
VERTEX
  5
12D
  8
LAYER_1
 10
131.0733667832288
 20
375.9903845397018
 30
0.0
  0
VERTEX
  5
12E
  8
LAYER_1
 10
132.3999088719111
 20
373.7859120511972
 30
0.0
  0
VERTEX
  5
12F
  8
LAYER_1
 10
133.7325786399654
 20
371.5858269347989
 30
0.0
  0
VERTEX
  5
130
  8
LAYER_1
 10
135.0713668777504
 20
369.3901492406098
 30
0.0
  0
VERTEX
  5
131
  8
LAYER_1
 10
136.4162643756247
 20
367.1988990187328
 30
0.0
  0
VERTEX
  5
132
  8
LAYER_1
 10
137.7672619239473
 20
365.0120963192709
 30
0.0
  0
VERTEX
  5
133
  8
LAYER_1
 10
139.1243503130767
 20
362.8297611923269
 30
0.0
  0
VERTEX
  5
134
  8
LAYER_1
 10
140.4875203333717
 20
360.6519136880038
 30
0.0
  0
VERTEX
  5
135
  8
LAYER_1
 10
141.856762775191
 20
358.4785738564046
 30
0.0
  0
VERTEX
  5
136
  8
LAYER_1
 10
143.2320684288933
 20
356.3097617476321
 30
0.0
  0
VERTEX
  5
137
  8
LAYER_1
 10
144.6134280848375
 20
354.1454974117894
 30
0.0
  0
VERTEX
  5
138
  8
LAYER_1
 10
146.0008325333821
 20
351.9858008989792
 30
0.0
  0
VERTEX
  5
139
  8
LAYER_1
 10
147.394272564886
 20
349.8306922593047
 30
0.0
  0
VERTEX
  5
13A
  8
LAYER_1
 10
148.7937389697078
 20
347.6801915428686
 30
0.0
  0
VERTEX
  5
13B
  8
LAYER_1
 10
150.1992225382063
 20
345.5343187997738
 30
0.0
  0
VERTEX
  5
13C
  8
LAYER_1
 10
151.6107140607401
 20
343.3930940801234
 30
0.0
  0
VERTEX
  5
13D
  8
LAYER_1
 10
153.0282043276682
 20
341.2565374340204
 30
0.0
  0
VERTEX
  5
13E
  8
LAYER_1
 10
154.451684129349
 20
339.1246689115675
 30
0.0
  0
VERTEX
  5
13F
  8
LAYER_1
 10
155.8811442561415
 20
336.9975085628678
 30
0.0
  0
VERTEX
  5
140
  8
LAYER_1
 10
157.3165754984042
 20
334.8750764380241
 30
0.0
  0
VERTEX
  5
141
  8
LAYER_1
 10
158.757968646496
 20
332.7573925871395
 30
0.0
  0
VERTEX
  5
142
  8
LAYER_1
 10
160.2053144907755
 20
330.6444770603167
 30
0.0
  0
VERTEX
  5
143
  8
LAYER_1
 10
161.6586038216015
 20
328.5363499076588
 30
0.0
  0
VERTEX
  5
144
  8
LAYER_1
 10
163.1178274293327
 20
326.4330311792687
 30
0.0
  0
VERTEX
  5
145
  8
LAYER_1
 10
164.5829761043279
 20
324.3345409252493
 30
0.0
  0
VERTEX
  5
146
  8
LAYER_1
 10
166.0540406369457
 20
322.2408991957035
 30
0.0
  0
VERTEX
  5
147
  8
LAYER_1
 10
167.5310118175449
 20
320.1521260407344
 30
0.0
  0
VERTEX
  5
148
  8
LAYER_1
 10
169.0138804364842
 20
318.0682415104448
 30
0.0
  0
VERTEX
  5
149
  8
LAYER_1
 10
170.5026372841223
 20
315.9892656549375
 30
0.0
  0
VERTEX
  5
14A
  8
LAYER_1
 10
171.997273150818
 20
313.9152185243156
 30
0.0
  0
VERTEX
  5
14B
  8
LAYER_1
 10
173.49777882693
 20
311.846120168682
 30
0.0
  0
VERTEX
  5
14C
  8
LAYER_1
 10
175.0041451028169
 20
309.7819906381396
 30
0.0
  0
VERTEX
  5
14D
  8
LAYER_1
 10
176.5163627688377
 20
307.7228499827914
 30
0.0
  0
VERTEX
  5
14E
  8
LAYER_1
 10
178.0344226153508
 20
305.6687182527403
 30
0.0
  0
VERTEX
  5
14F
  8
LAYER_1
 10
179.5583154327152
 20
303.6196154980892
 30
0.0
  0
VERTEX
  5
150
  8
LAYER_1
 10
181.0880320112895
 20
301.575561768941
 30
0.0
  0
VERTEX
  5
151
  8
LAYER_1
 10
182.6235631414324
 20
299.5365771153987
 30
0.0
  0
VERTEX
  5
152
  8
LAYER_1
 10
184.1648996135028
 20
297.5026815875652
 30
0.0
  0
VERTEX
  5
153
  8
LAYER_1
 10
185.7120322178591
 20
295.4738952355435
 30
0.0
  0
VERTEX
  5
154
  8
LAYER_1
 10
187.2649517448603
 20
293.4502381094364
 30
0.0
  0
VERTEX
  5
155
  8
LAYER_1
 10
188.8236489848651
 20
291.4317302593469
 30
0.0
  0
VERTEX
  5
156
  8
LAYER_1
 10
190.3881147282321
 20
289.4183917353779
 30
0.0
  0
VERTEX
  5
157
  8
LAYER_1
 10
191.9583397653201
 20
287.4102425876324
 30
0.0
  0
VERTEX
  5
158
  8
LAYER_1
 10
193.5343148864878
 20
285.4073028662132
 30
0.0
  0
VERTEX
  5
159
  8
LAYER_1
 10
195.116030882094
 20
283.4095926212234
 30
0.0
  0
VERTEX
  5
15A
  8
LAYER_1
 10
196.7034785424974
 20
281.4171319027658
 30
0.0
  0
VERTEX
  5
15B
  8
LAYER_1
 10
198.2966486580566
 20
279.4299407609434
 30
0.0
  0
VERTEX
  5
15C
  8
LAYER_1
 10
199.8955320191305
 20
277.4480392458591
 30
0.0
  0
VERTEX
  5
15D
  8
LAYER_1
 10
201.5001194160777
 20
275.4714474076158
 30
0.0
  0
VERTEX
  5
15E
  8
LAYER_1
 10
203.1104016392569
 20
273.5001852963164
 30
0.0
  0
VERTEX
  5
15F
  8
LAYER_1
 10
204.726369479027
 20
271.534272962064
 30
0.0
  0
VERTEX
  5
160
  8
LAYER_1
 10
206.3480137257467
 20
269.5737304549614
 30
0.0
  0
VERTEX
  5
161
  8
LAYER_1
 10
207.9753251697745
 20
267.6185778251115
 30
0.0
  0
VERTEX
  5
162
  8
LAYER_1
 10
209.6082946014694
 20
265.6688351226173
 30
0.0
  0
VERTEX
  5
163
  8
LAYER_1
 10
211.2469128111899
 20
263.7245223975817
 30
0.0
  0
VERTEX
  5
164
  8
LAYER_1
 10
212.8911705892949
 20
261.7856597001077
 30
0.0
  0
VERTEX
  5
165
  8
LAYER_1
 10
214.541058726143
 20
259.8522670802981
 30
0.0
  0
VERTEX
  5
166
  8
LAYER_1
 10
216.196568012093
 20
257.924364588256
 30
0.0
  0
VERTEX
  5
167
  8
LAYER_1
 10
217.8576892375036
 20
256.0019722740842
 30
0.0
  0
VERTEX
  5
168
  8
LAYER_1
 10
219.5244131927336
 20
254.0851101878856
 30
0.0
  0
VERTEX
  5
169
  8
LAYER_1
 10
221.1967306681416
 20
252.1737983797632
 30
0.0
  0
VERTEX
  5
16A
  8
LAYER_1
 10
222.8746324540863
 20
250.26805689982
 30
0.0
  0
VERTEX
  5
16B
  8
LAYER_1
 10
224.5581093409266
 20
248.3679057981588
 30
0.0
  0
VERTEX
  5
16C
  8
LAYER_1
 10
226.2471521190211
 20
246.4733651248825
 30
0.0
  0
VERTEX
  5
16D
  8
LAYER_1
 10
227.9417515787286
 20
244.5844549300942
 30
0.0
  0
VERTEX
  5
16E
  8
LAYER_1
 10
229.6418985104078
 20
242.7011952638968
 30
0.0
  0
VERTEX
  5
16F
  8
LAYER_1
 10
231.3475837044174
 20
240.823606176393
 30
0.0
  0
VERTEX
  5
170
  8
LAYER_1
 10
233.0587979511161
 20
238.951707717686
 30
0.0
  0
VERTEX
  5
171
  8
LAYER_1
 10
234.7755320408626
 20
237.0855199378786
 30
0.0
  0
VERTEX
  5
172
  8
LAYER_1
 10
236.4977767640158
 20
235.2250628870738
 30
0.0
  0
VERTEX
  5
173
  8
LAYER_1
 10
238.2255229109343
 20
233.3703566153745
 30
0.0
  0
VERTEX
  5
174
  8
LAYER_1
 10
239.9587612719768
 20
231.5214211728835
 30
0.0
  0
VERTEX
  5
175
  8
LAYER_1
 10
241.6974826375021
 20
229.678276609704
 30
0.0
  0
VERTEX
  5
176
  8
LAYER_1
 10
243.4416777978689
 20
227.8409429759387
 30
0.0
  0
VERTEX
  5
177
  8
LAYER_1
 10
245.1913375434358
 20
226.0094403216906
 30
0.0
  0
VERTEX
  5
178
  8
LAYER_1
 10
246.9464526645618
 20
224.1837886970627
 30
0.0
  0
VERTEX
  5
179
  8
LAYER_1
 10
248.7070139516054
 20
222.3640081521578
 30
0.0
  0
VERTEX
  5
17A
  8
LAYER_1
 10
250.4730121949254
 20
220.5501187370789
 30
0.0
  0
VERTEX
  5
17B
  8
LAYER_1
 10
252.2444381848805
 20
218.742140501929
 30
0.0
  0
VERTEX
  5
17C
  8
LAYER_1
 10
254.0212827118294
 20
216.9400934968109
 30
0.0
  0
VERTEX
  5
17D
  8
LAYER_1
 10
255.8035365661309
 20
215.1439977718276
 30
0.0
  0
VERTEX
  5
17E
  8
LAYER_1
 10
257.5911905381438
 20
213.353873377082
 30
0.0
  0
VERTEX
  5
17F
  8
LAYER_1
 10
259.3842354182266
 20
211.5697403626771
 30
0.0
  0
VERTEX
  5
180
  8
LAYER_1
 10
261.1826619967381
 20
209.7916187787157
 30
0.0
  0
VERTEX
  5
181
  8
LAYER_1
 10
262.9864610640373
 20
208.0195286753008
 30
0.0
  0
VERTEX
  5
182
  8
LAYER_1
 10
264.7956234104826
 20
206.2534901025354
 30
0.0
  0
VERTEX
  5
183
  8
LAYER_1
 10
266.6101398264327
 20
204.4935231105223
 30
0.0
  0
VERTEX
  5
184
  8
LAYER_1
 10
268.4300011022465
 20
202.7396477493646
 30
0.0
  0
VERTEX
  5
185
  8
LAYER_1
 10
270.2551980282827
 20
200.9918840691651
 30
0.0
  0
VERTEX
  5
186
  8
LAYER_1
 10
272.0857213949001
 20
199.2502521200267
 30
0.0
  0
VERTEX
  5
187
  8
LAYER_1
 10
273.9215619924572
 20
197.5147719520524
 30
0.0
  0
VERTEX
  5
188
  8
LAYER_1
 10
275.7627106113129
 20
195.7854636153451
 30
0.0
  0
VERTEX
  5
189
  8
LAYER_1
 10
277.6091580418259
 20
194.0623471600078
 30
0.0
  0
VERTEX
  5
18A
  8
LAYER_1
 10
279.4608950743549
 20
192.3454426361434
 30
0.0
  0
VERTEX
  5
18B
  8
LAYER_1
 10
281.3179124992586
 20
190.6347700938547
 30
0.0
  0
VERTEX
  5
18C
  8
LAYER_1
 10
283.1802011068957
 20
188.9303495832448
 30
0.0
  0
VERTEX
  5
18D
  8
LAYER_1
 10
285.047751687625
 20
187.2322011544166
 30
0.0
  0
VERTEX
  5
18E
  8
LAYER_1
 10
286.9205550318053
 20
185.540344857473
 30
0.0
  0
VERTEX
  5
18F
  8
LAYER_1
 10
288.7986019297952
 20
183.8548007425168
 30
0.0
  0
VERTEX
  5
190
  8
LAYER_1
 10
290.6818831719535
 20
182.1755888596512
 30
0.0
  0
VERTEX
  5
191
  8
LAYER_1
 10
292.5703895486388
 20
180.5027292589789
 30
0.0
  0
VERTEX
  5
192
  8
LAYER_1
 10
294.4641118502099
 20
178.8362419906029
 30
0.0
  0
VERTEX
  5
193
  8
LAYER_1
 10
296.3630408670256
 20
177.1761471046262
 30
0.0
  0
VERTEX
  5
194
  8
LAYER_1
 10
298.2671673894445
 20
175.5224646511516
 30
0.0
  0
VERTEX
  5
195
  8
LAYER_1
 10
300.1764822078254
 20
173.8752146802822
 30
0.0
  0
VERTEX
  5
196
  8
LAYER_1
 10
302.0909761125271
 20
172.2344172421208
 30
0.0
  0
VERTEX
  5
197
  8
LAYER_1
 10
304.0106398939081
 20
170.6000923867703
 30
0.0
  0
VERTEX
  5
198
  8
LAYER_1
 10
305.9354643423274
 20
168.9722601643338
 30
0.0
  0
VERTEX
  5
199
  8
LAYER_1
 10
307.8654402481434
 20
167.3509406249141
 30
0.0
  0
VERTEX
  5
19A
  8
LAYER_1
 10
309.8005584017152
 20
165.7361538186141
 30
0.0
  0
VERTEX
  5
19B
  8
LAYER_1
 10
311.7408095934013
 20
164.1279197955368
 30
0.0
  0
VERTEX
  5
19C
  8
LAYER_1
 10
313.6861846135605
 20
162.5262586057851
 30
0.0
  0
VERTEX
  5
19D
  8
LAYER_1
 10
315.6366742525514
 20
160.931190299462
 30
0.0
  0
VERTEX
  5
19E
  8
LAYER_1
 10
317.5922693007329
 20
159.3427349266703
 30
0.0
  0
VERTEX
  5
19F
  8
LAYER_1
 10
319.5529605484636
 20
157.7609125375131
 30
0.0
  0
VERTEX
  5
1A0
  8
LAYER_1
 10
321.5187387861023
 20
156.1857431820932
 30
0.0
  0
VERTEX
  5
1A1
  8
LAYER_1
 10
323.4895948040077
 20
154.6172469105135
 30
0.0
  0
VERTEX
  5
1A2
  8
LAYER_1
 10
325.4655193925384
 20
153.0554437728771
 30
0.0
  0
VERTEX
  5
1A3
  8
LAYER_1
 10
327.4465033420533
 20
151.5003538192867
 30
0.0
  0
VERTEX
  5
1A4
  8
LAYER_1
 10
329.4325374429112
 20
149.9519970998454
 30
0.0
  0
VERTEX
  5
1A5
  8
LAYER_1
 10
331.4236124854706
 20
148.4103936646561
 30
0.0
  0
VERTEX
  5
1A6
  8
LAYER_1
 10
333.4197192600902
 20
146.8755635638217
 30
0.0
  0
VERTEX
  5
1A7
  8
LAYER_1
 10
335.420848557129
 20
145.3475268474452
 30
0.0
  0
VERTEX
  5
1A8
  8
LAYER_1
 10
337.4269911669455
 20
143.8263035656294
 30
0.0
  0
VERTEX
  5
1A9
  8
LAYER_1
 10
339.4381378798986
 20
142.3119137684773
 30
0.0
  0
VERTEX
  5
1AA
  8
LAYER_1
 10
341.4542794863469
 20
140.8043775060919
 30
0.0
  0
VERTEX
  5
1AB
  8
LAYER_1
 10
343.4754067766492
 20
139.303714828576
 30
0.0
  0
VERTEX
  5
1AC
  8
LAYER_1
 10
345.5015105411641
 20
137.8099457860326
 30
0.0
  0
VERTEX
  5
1AD
  8
LAYER_1
 10
347.5325815702504
 20
136.3230904285646
 30
0.0
  0
VERTEX
  5
1AE
  8
LAYER_1
 10
349.5686106542669
 20
134.843168806275
 30
0.0
  0
VERTEX
  5
1AF
  8
LAYER_1
 10
351.6095885835722
 20
133.3702009692666
 30
0.0
  0
VERTEX
  5
1B0
  8
LAYER_1
 10
353.6555061485251
 20
131.9042069676426
 30
0.0
  0
VERTEX
  5
1B1
  8
LAYER_1
 10
355.7063541394842
 20
130.4452068515055
 30
0.0
  0
VERTEX
  5
1B2
  8
LAYER_1
 10
357.7621233468084
 20
128.9932206709586
 30
0.0
  0
VERTEX
  5
1B3
  8
LAYER_1
 10
359.8228045608564
 20
127.5482684761047
 30
0.0
  0
VERTEX
  5
1B4
  8
LAYER_1
 10
361.8883885719869
 20
126.1103703170467
 30
0.0
  0
VERTEX
  5
1B5
  8
LAYER_1
 10
363.9588661705585
 20
124.6795462438876
 30
0.0
  0
VERTEX
  5
1B6
  8
LAYER_1
 10
366.0342281469301
 20
123.2558163067303
 30
0.0
  0
VERTEX
  5
1B7
  8
LAYER_1
 10
368.1144652914604
 20
121.8392005556776
 30
0.0
  0
VERTEX
  5
1B8
  8
LAYER_1
 10
370.199568394508
 20
120.4297190408327
 30
0.0
  0
VERTEX
  5
1B9
  8
LAYER_1
 10
372.2895282464318
 20
119.0273918122983
 30
0.0
  0
VERTEX
  5
1BA
  8
LAYER_1
 10
374.3843356375904
 20
117.6322389201774
 30
0.0
  0
VERTEX
  5
1BB
  8
LAYER_1
 10
376.4839813583426
 20
116.244280414573
 30
0.0
  0
VERTEX
  5
1BC
  8
LAYER_1
 10
378.588456199047
 20
114.863536345588
 30
0.0
  0
VERTEX
  5
1BD
  8
LAYER_1
 10
380.6977509500625
 20
113.4900267633252
 30
0.0
  0
VERTEX
  5
1BE
  8
LAYER_1
 10
382.8118564017477
 20
112.1237717178876
 30
0.0
  0
VERTEX
  5
1BF
  8
LAYER_1
 10
384.9307633444614
 20
110.7647912593783
 30
0.0
  0
VERTEX
  5
1C0
  8
LAYER_1
 10
387.0544625685623
 20
109.4131054379
 30
0.0
  0
VERTEX
  5
1C1
  8
LAYER_1
 10
389.182944864409
 20
108.0687343035557
 30
0.0
  0
VERTEX
  5
1C2
  8
LAYER_1
 10
391.3162010223605
 20
106.7316979064484
 30
0.0
  0
VERTEX
  5
1C3
  8
LAYER_1
 10
393.4542218327753
 20
105.402016296681
 30
0.0
  0
VERTEX
  5
1C4
  8
LAYER_1
 10
395.5969980860121
 20
104.0797095243564
 30
0.0
  0
VERTEX
  5
1C5
  8
LAYER_1
 10
397.7445205724298
 20
102.7647976395775
 30
0.0
  0
VERTEX
  5
1C6
  8
LAYER_1
 10
399.8967800823871
 20
101.4573006924473
 30
0.0
  0
VERTEX
  5
1C7
  8
LAYER_1
 10
402.0537674062426
 20
100.1572387330686
 30
0.0
  0
VERTEX
  5
1C8
  8
LAYER_1
 10
404.2154733343552
 20
98.86463181154453
 30
0.0
  0
VERTEX
  5
1C9
  8
LAYER_1
 10
406.3818886570834
 20
97.57949997797787
 30
0.0
  0
VERTEX
  5
1CA
  8
LAYER_1
 10
408.5530041647861
 20
96.30186328247163
 30
0.0
  0
VERTEX
  5
1CB
  8
LAYER_1
 10
410.7288106478219
 20
95.0317417751287
 30
0.0
  0
VERTEX
  5
1CC
  8
LAYER_1
 10
412.9092988965497
 20
93.76915550605202
 30
0.0
  0
VERTEX
  5
1CD
  8
LAYER_1
 10
415.0944597013281
 20
92.51412452534451
 30
0.0
  0
VERTEX
  5
1CE
  8
LAYER_1
 10
417.2842838525158
 20
91.26666888310912
 30
0.0
  0
VERTEX
  5
1CF
  8
LAYER_1
 10
419.4787621404716
 20
90.02680862944877
 30
0.0
  0
VERTEX
  5
1D0
  8
LAYER_1
 10
421.6778853555543
 20
88.79456381446637
 30
0.0
  0
VERTEX
  5
1D1
  8
LAYER_1
 10
423.8816442881225
 20
87.56995448826487
 30
0.0
  0
VERTEX
  5
1D2
  8
LAYER_1
 10
426.0900297285349
 20
86.35300070094719
 30
0.0
  0
VERTEX
  5
1D3
  8
LAYER_1
 10
428.3030324671503
 20
85.14372250261627
 30
0.0
  0
VERTEX
  5
1D4
  8
LAYER_1
 10
430.5206432943273
 20
83.94213994337505
 30
0.0
  0
VERTEX
  5
1D5
  8
LAYER_1
 10
432.7428530004249
 20
82.74827307332646
 30
0.0
  0
VERTEX
  5
1D6
  8
LAYER_1
 10
434.9696523758015
 20
81.56214194257339
 30
0.0
  0
VERTEX
  5
1D7
  8
LAYER_1
 10
437.2010322108161
 20
80.38376660121881
 30
0.0
  0
VERTEX
  5
1D8
  8
LAYER_1
 10
439.4369832958272
 20
79.21316709936562
 30
0.0
  0
VERTEX
  5
1D9
  8
LAYER_1
 10
441.6774964211937
 20
78.05036348711677
 30
0.0
  0
VERTEX
  5
1DA
  8
LAYER_1
 10
443.9225623772743
 20
76.89537581457519
 30
0.0
  0
VERTEX
  5
1DB
  8
LAYER_1
 10
446.1721719544277
 20
75.74822413184381
 30
0.0
  0
VERTEX
  5
1DC
  8
LAYER_1
 10
448.4263159430126
 20
74.60892848902556
 30
0.0
  0
VERTEX
  5
1DD
  8
LAYER_1
 10
450.6849851333876
 20
73.47750893622336
 30
0.0
  0
VERTEX
  5
1DE
  8
LAYER_1
 10
452.9481703159116
 20
72.35398552354013
 30
0.0
  0
VERTEX
  5
1DF
  8
LAYER_1
 10
455.2158622809434
 20
71.23837830107885
 30
0.0
  0
VERTEX
  5
1E0
  8
LAYER_1
 10
457.4880518188415
 20
70.1307073189424
 30
0.0
  0
VERTEX
  5
1E1
  8
LAYER_1
 10
459.7647297199649
 20
69.03099262723373
 30
0.0
  0
VERTEX
  5
1E2
  8
LAYER_1
 10
462.045886774672
 20
67.93925427605575
 30
0.0
  0
VERTEX
  5
1E3
  8
LAYER_1
 10
464.3315137733218
 20
66.8555123155114
 30
0.0
  0
VERTEX
  5
1E4
  8
LAYER_1
 10
466.6216015062729
 20
65.77978679570361
 30
0.0
  0
VERTEX
  5
1E5
  8
LAYER_1
 10
468.916140763884
 20
64.71209776673535
 30
0.0
  0
VERTEX
  5
1E6
  8
LAYER_1
 10
471.2151223365138
 20
63.65246527870949
 30
0.0
  0
VERTEX
  5
1E7
  8
LAYER_1
 10
473.5185370145213
 20
62.600909381729
 30
0.0
  0
VERTEX
  5
1E8
  8
LAYER_1
 10
475.8263755882649
 20
61.55745012589678
 30
0.0
  0
VERTEX
  5
1E9
  8
LAYER_1
 10
478.1386288481034
 20
60.52210756131578
 30
0.0
  0
VERTEX
  5
1EA
  8
LAYER_1
 10
480.4552875843956
 20
59.49490173808891
 30
0.0
  0
VERTEX
  5
1EB
  8
LAYER_1
 10
482.7763425875002
 20
58.47585270631913
 30
0.0
  0
VERTEX
  5
1EC
  8
LAYER_1
 10
485.101784647776
 20
57.46498051610935
 30
0.0
  0
VERTEX
  5
1ED
  8
LAYER_1
 10
487.4316045555815
 20
56.46230521756251
 30
0.0
  0
VERTEX
  5
1EE
  8
LAYER_1
 10
489.7657931012757
 20
55.46784686078152
 30
0.0
  0
VERTEX
  5
1EF
  8
LAYER_1
 10
492.1043410752171
 20
54.48162549586934
 30
0.0
  0
VERTEX
  5
1F0
  8
LAYER_1
 10
494.4472392677645
 20
53.50366117292887
 30
0.0
  0
VERTEX
  5
1F1
  8
LAYER_1
 10
496.7944784692768
 20
52.53397394206306
 30
0.0
  0
VERTEX
  5
1F2
  8
LAYER_1
 10
499.1460494701124
 20
51.57258385337483
 30
0.0
  0
VERTEX
  5
1F3
  8
LAYER_1
 10
501.5019430606304
 20
50.61951095696712
 30
0.0
  0
VERTEX
  5
1F4
  8
LAYER_1
 10
503.8621500311892
 20
49.67477530294285
 30
0.0
  0
VERTEX
  5
1F5
  8
LAYER_1
 10
506.2266611721477
 20
48.73839694140494
 30
0.0
  0
VERTEX
  5
1F6
  8
LAYER_1
 10
508.5954672738646
 20
47.81039592245634
 30
0.0
  0
VERTEX
  5
1F7
  8
LAYER_1
 10
510.9685591266985
 20
46.89079229619998
 30
0.0
  0
VERTEX
  5
1F8
  8
LAYER_1
 10
513.3459275210082
 20
45.97960611273878
 30
0.0
  0
VERTEX
  5
1F9
  8
LAYER_1
 10
515.7275632471526
 20
45.07685742217566
 30
0.0
  0
VERTEX
  5
1FA
  8
LAYER_1
 10
518.1134570954903
 20
44.18256627461358
 30
0.0
  0
VERTEX
  5
1FB
  8
LAYER_1
 10
520.5035998563799
 20
43.29675272015544
 30
0.0
  0
VERTEX
  5
1FC
  8
LAYER_1
 10
522.8979823201803
 20
42.41943680890419
 30
0.0
  0
VERTEX
  5
1FD
  8
LAYER_1
 10
525.2965952772502
 20
41.55063859096274
 30
0.0
  0
VERTEX
  5
1FE
  8
LAYER_1
 10
527.6994295179481
 20
40.69037811643404
 30
0.0
  0
VERTEX
  5
1FF
  8
LAYER_1
 10
530.1064758326331
 20
39.83867543542101
 30
0.0
  0
VERTEX
  5
200
  8
LAYER_1
 10
532.5177250116637
 20
38.99555059802658
 30
0.0
  0
VERTEX
  5
201
  8
LAYER_1
 10
534.9331678453985
 20
38.16102365435368
 30
0.0
  0
VERTEX
  5
202
  8
LAYER_1
 10
537.3527951241965
 20
37.33511465450525
 30
0.0
  0
VERTEX
  5
203
  8
LAYER_1
 10
539.7765976384163
 20
36.5178436485842
 30
0.0
  0
VERTEX
  5
204
  8
LAYER_1
 10
542.2045661784166
 20
35.70923068669347
 30
0.0
  0
VERTEX
  5
205
  8
LAYER_1
 10
544.6366915345563
 20
34.90929581893599
 30
0.0
  0
VERTEX
  5
206
  8
LAYER_1
 10
547.072964497194
 20
34.1180590954147
 30
0.0
  0
VERTEX
  5
207
  8
LAYER_1
 10
549.5133758566883
 20
33.33554056623252
 30
0.0
  0
VERTEX
  5
208
  8
LAYER_1
 10
551.9579164033981
 20
32.56176028149237
 30
0.0
  0
VERTEX
  5
209
  8
LAYER_1
 10
554.406576927682
 20
31.7967382912972
 30
0.0
  0
VERTEX
  5
20A
  8
LAYER_1
 10
556.8593482198987
 20
31.04049464574993
 30
0.0
  0
VERTEX
  5
20B
  8
LAYER_1
 10
559.3162210704072
 20
30.29304939495349
 30
0.0
  0
VERTEX
  5
20C
  8
LAYER_1
 10
561.7771862695661
 20
29.55442258901081
 30
0.0
  0
VERTEX
  5
20D
  8
LAYER_1
 10
564.2422346077338
 20
28.82463427802482
 30
0.0
  0
VERTEX
  5
20E
  8
LAYER_1
 10
566.7113568752695
 20
28.10370451209844
 30
0.0
  0
VERTEX
  5
20F
  8
LAYER_1
 10
569.1845438625317
 20
27.39165334133462
 30
0.0
  0
VERTEX
  5
210
  8
LAYER_1
 10
571.661786359879
 20
26.68850081583627
 30
0.0
  0
VERTEX
  5
211
  8
LAYER_1
 10
574.1430751576704
 20
25.99426698570634
 30
0.0
  0
VERTEX
  5
212
  8
LAYER_1
 10
576.6284010462646
 20
25.30897190104774
 30
0.0
  0
VERTEX
  5
213
  8
LAYER_1
 10
579.1177548160201
 20
24.63263561196342
 30
0.0
  0
VERTEX
  5
214
  8
LAYER_1
 10
581.6111272572957
 20
23.96527816855629
 30
0.0
  0
VERTEX
  5
215
  8
LAYER_1
 10
584.1085091604502
 20
23.30691962092929
 30
0.0
  0
VERTEX
  5
216
  8
LAYER_1
 10
586.6098913158424
 20
22.65758001918535
 30
0.0
  0
VERTEX
  5
217
  8
LAYER_1
 10
589.1152645138309
 20
22.0172794134274
 30
0.0
  0
VERTEX
  5
218
  8
LAYER_1
 10
591.6246195447744
 20
21.38603785375836
 30
0.0
  0
VERTEX
  5
219
  8
LAYER_1
 10
594.1379471990317
 20
20.76387539028118
 30
0.0
  0
VERTEX
  5
21A
  8
LAYER_1
 10
596.6552382669616
 20
20.15081207309877
 30
0.0
  0
VERTEX
  5
21B
  8
LAYER_1
 10
599.1764835389226
 20
19.54686795231407
 30
0.0
  0
VERTEX
  5
21C
  8
LAYER_1
 10
601.7016738052737
 20
18.95206307803001
 30
0.0
  0
VERTEX
  5
21D
  8
LAYER_1
 10
604.2307998563733
 20
18.36641750034952
 30
0.0
  0
VERTEX
  5
21E
  8
LAYER_1
 10
606.7638524825804
 20
17.78995126937552
 30
0.0
  0
VERTEX
  5
21F
  8
LAYER_1
 10
609.3008224742537
 20
17.22268443521095
 30
0.0
  0
VERTEX
  5
220
  8
LAYER_1
 10
611.8417006217517
 20
16.66463704795874
 30
0.0
  0
VERTEX
  5
221
  8
LAYER_1
 10
614.3864777154333
 20
16.11582915772182
 30
0.0
  0
VERTEX
  5
222
  8
LAYER_1
 10
616.9351445456572
 20
15.57628081460311
 30
0.0
  0
VERTEX
  5
223
  8
LAYER_1
 10
619.4876919027822
 20
15.04601206870555
 30
0.0
  0
VERTEX
  5
224
  8
LAYER_1
 10
622.044110577167
 20
14.52504297013207
 30
0.0
  0
VERTEX
  5
225
  8
LAYER_1
 10
624.6043913591702
 20
14.0133935689856
 30
0.0
  0
VERTEX
  5
226
  8
LAYER_1
 10
627.1685250391507
 20
13.51108391536906
 30
0.0
  0
VERTEX
  5
227
  8
LAYER_1
 10
629.7365024074671
 20
13.01813405938539
 30
0.0
  0
VERTEX
  5
228
  8
LAYER_1
 10
632.3083142544782
 20
12.53456405113751
 30
0.0
  0
VERTEX
  5
229
  8
LAYER_1
 10
634.8839513705426
 20
12.06039394072836
 30
0.0
  0
VERTEX
  5
22A
  8
LAYER_1
 10
637.4634045460191
 20
11.59564377826087
 30
0.0
  0
VERTEX
  5
22B
  8
LAYER_1
 10
640.0466645712665
 20
11.14033361383796
 30
0.0
  0
VERTEX
  5
22C
  8
LAYER_1
 10
642.6337222366436
 20
10.69448349756257
 30
0.0
  0
VERTEX
  5
22D
  8
LAYER_1
 10
645.2245683325089
 20
10.25811347953762
 30
0.0
  0
VERTEX
  5
22E
  8
LAYER_1
 10
647.8191936492211
 20
9.831243609866053
 30
0.0
  0
VERTEX
  5
22F
  8
LAYER_1
 10
650.4175889771391
 20
9.41389393865079
 30
0.0
  0
VERTEX
  5
230
  8
LAYER_1
 10
653.0197451066216
 20
9.006084515994761
 30
0.0
  0
VERTEX
  5
231
  8
LAYER_1
 10
655.6256528280273
 20
8.607835392000897
 30
0.0
  0
VERTEX
  5
232
  8
LAYER_1
 10
658.235302931715
 20
8.219166616772132
 30
0.0
  0
VERTEX
  5
233
  8
LAYER_1
 10
660.8486862080431
 20
7.840098240411387
 30
0.0
  0
VERTEX
  5
234
  8
LAYER_1
 10
663.4657934473707
 20
7.4706503130216
 30
0.0
  0
VERTEX
  5
235
  8
LAYER_1
 10
666.0866154400564
 20
7.110842884705696
 30
0.0
  0
VERTEX
  5
236
  8
LAYER_1
 10
668.7111429764589
 20
6.760696005566606
 30
0.0
  0
VERTEX
  5
237
  8
LAYER_1
 10
671.3393668469371
 20
6.420229725707262
 30
0.0
  0
VERTEX
  5
238
  8
LAYER_1
 10
673.9712778418494
 20
6.089464095230593
 30
0.0
  0
VERTEX
  5
239
  8
LAYER_1
 10
676.6068667515547
 20
5.768419164239527
 30
0.0
  0
VERTEX
  5
23A
  8
LAYER_1
 10
679.2461243664118
 20
5.457114982836996
 30
0.0
  0
VERTEX
  5
23B
  8
LAYER_1
 10
681.8890414767794
 20
5.155571601125929
 30
0.0
  0
VERTEX
  5
23C
  8
LAYER_1
 10
695.4933721341217
 20
4.786011074521836
 30
0.0
  0
VERTEX
  5
23D
  8
LAYER_1
 10
709.0983156270657
 20
4.436426364218803
 30
0.0
  0
VERTEX
  5
23E
  8
LAYER_1
 10
722.7038551108575
 20
4.106381136174321
 30
0.0
  0
VERTEX
  5
23F
  8
LAYER_1
 10
736.3099737407432
 20
3.795439056345882
 30
0.0
  0
VERTEX
  5
240
  8
LAYER_1
 10
749.9166546719691
 20
3.503163790690976
 30
0.0
  0
VERTEX
  5
241
  8
LAYER_1
 10
763.5238810597814
 20
3.229119005167093
 30
0.0
  0
VERTEX
  5
242
  8
LAYER_1
 10
777.1316360594265
 20
2.972868365731725
 30
0.0
  0
VERTEX
  5
243
  8
LAYER_1
 10
790.7399028261501
 20
2.733975538342363
 30
0.0
  0
VERTEX
  5
244
  8
LAYER_1
 10
804.3486645151988
 20
2.512004188956497
 30
0.0
  0
VERTEX
  5
245
  8
LAYER_1
 10
817.9579042818189
 20
2.306517983531618
 30
0.0
  0
VERTEX
  5
246
  8
LAYER_1
 10
831.5676052812563
 20
2.117080588025217
 30
0.0
  0
VERTEX
  5
247
  8
LAYER_1
 10
845.1777506687574
 20
1.943255668394785
 30
0.0
  0
VERTEX
  5
248
  8
LAYER_1
 10
858.7883235995682
 20
1.784606890597812
 30
0.0
  0
VERTEX
  5
249
  8
LAYER_1
 10
872.3993072289352
 20
1.64069792059179
 30
0.0
  0
VERTEX
  5
24A
  8
LAYER_1
 10
886.0106847121042
 20
1.511092424334209
 30
0.0
  0
VERTEX
  5
24B
  8
LAYER_1
 10
899.6224392043218
 20
1.395354067782561
 30
0.0
  0
VERTEX
  5
24C
  8
LAYER_1
 10
913.234553860834
 20
1.293046516894335
 30
0.0
  0
VERTEX
  5
24D
  8
LAYER_1
 10
926.8470118368871
 20
1.203733437627023
 30
0.0
  0
VERTEX
  5
24E
  8
LAYER_1
 10
940.4597962877272
 20
1.126978495938116
 30
0.0
  0
VERTEX
  5
24F
  8
LAYER_1
 10
954.0728903686005
 20
1.062345357785105
 30
0.0
  0
VERTEX
  5
250
  8
LAYER_1
 10
967.6862772347532
 20
1.009397689125479
 30
0.0
  0
VERTEX
  5
251
  8
LAYER_1
 10
981.2999400414317
 20
0.9676991559167314
 30
0.0
  0
VERTEX
  5
252
  8
LAYER_1
 10
994.913861943882
 20
0.9368134241163513
 30
0.0
  0
VERTEX
  5
253
  8
LAYER_1
 10
1008.52802609735
 20
0.91630415968183
 30
0.0
  0
VERTEX
  5
254
  8
LAYER_1
 10
1022.142415657083
 20
0.9057350285706584
 30
0.0
  0
VERTEX
  5
255
  8
LAYER_1
 10
1035.757013778326
 20
0.9046696967403274
 30
0.0
  0
VERTEX
  5
256
  8
LAYER_1
 10
1049.371803616326
 20
0.9126718301483276
 30
0.0
  0
VERTEX
  5
257
  8
LAYER_1
 10
1062.986768326329
 20
0.9293050947521502
 30
0.0
  0
VERTEX
  5
258
  8
LAYER_1
 10
1076.601891063581
 20
0.9541331565092857
 30
0.0
  0
VERTEX
  5
259
  8
LAYER_1
 10
1090.217154983327
 20
0.986719681377225
 30
0.0
  0
VERTEX
  5
25A
  8
LAYER_1
 10
1117.448038991292
 20
1.073422784275479
 30
0.0
  0
VERTEX
  5
25B
  8
LAYER_1
 10
1144.679285592192
 20
1.185923731106838
 30
0.0
  0
VERTEX
  5
25C
  8
LAYER_1
 10
1171.910760027998
 20
1.320731849531229
 30
0.0
  0
VERTEX
  5
25D
  8
LAYER_1
 10
1199.142327540678
 20
1.474356467208579
 30
0.0
  0
VERTEX
  5
25E
  8
LAYER_1
 10
1226.373853372203
 20
1.643306911798815
 30
0.0
  0
VERTEX
  5
25F
  8
LAYER_1
 10
1280.836240959664
 20
2.013222592357649
 30
0.0
  0
VERTEX
  5
260
  8
LAYER_1
 10
1335.296844726138
 20
2.402553512487146
 30
0.0
  0
VERTEX
  5
261
  8
LAYER_1
 10
1389.754586607383
 20
2.783374293466719
 30
0.0
  0
VERTEX
  5
262
  8
LAYER_1
 10
1416.982047445969
 20
2.961866700925101
 30
0.0
  0
VERTEX
  5
263
  8
LAYER_1
 10
1444.208388539155
 20
3.127759556575781
 30
0.0
  0
VERTEX
  5
264
  8
LAYER_1
 10
1471.433475128913
 20
3.277562188078688
 30
0.0
  0
VERTEX
  5
265
  8
LAYER_1
 10
1498.657172457211
 20
3.407783923093747
 30
0.0
  0
VERTEX
  5
266
  8
LAYER_1
 10
1525.87934576602
 20
3.514934089280884
 30
0.0
  0
VERTEX
  5
267
  8
LAYER_1
 10
1553.099860297309
 20
3.595522014300028
 30
0.0
  0
VERTEX
  5
268
  8
LAYER_1
 10
1557.925790190485
 20
3.612768304037512
 30
0.0
  0
VERTEX
  5
269
  8
LAYER_1
 10
1562.861620662242
 20
3.645073018259599
 30
0.0
  0
VERTEX
  5
26A
  8
LAYER_1
 10
1567.904670717238
 20
3.692759864817985
 30
0.0
  0
VERTEX
  5
26B
  8
LAYER_1
 10
1573.052259360129
 20
3.756152551564365
 30
0.0
  0
VERTEX
  5
26C
  8
LAYER_1
 10
1578.301705595575
 20
3.835574786350436
 30
0.0
  0
VERTEX
  5
26D
  8
LAYER_1
 10
1583.650328428231
 20
3.931350277027892
 30
0.0
  0
VERTEX
  5
26E
  8
LAYER_1
 10
1589.095446862756
 20
4.04380273144843
 30
0.0
  0
VERTEX
  5
26F
  8
LAYER_1
 10
1594.634379903806
 20
4.173255857463745
 30
0.0
  0
VERTEX
  5
270
  8
LAYER_1
 10
1600.264446556041
 20
4.320033362925531
 30
0.0
  0
VERTEX
  5
271
  8
LAYER_1
 10
1605.982965824116
 20
4.484458955685486
 30
0.0
  0
VERTEX
  5
272
  8
LAYER_1
 10
1611.787256712691
 20
4.666856343595306
 30
0.0
  0
VERTEX
  5
273
  8
LAYER_1
 10
1617.674638226421
 20
4.867549234506683
 30
0.0
  0
VERTEX
  5
274
  8
LAYER_1
 10
1623.642429369965
 20
5.086861336271316
 30
0.0
  0
VERTEX
  5
275
  8
LAYER_1
 10
1629.687949147981
 20
5.325116356740898
 30
0.0
  0
VERTEX
  5
276
  8
LAYER_1
 10
1635.808516565125
 20
5.582638003767126
 30
0.0
  0
VERTEX
  5
277
  8
LAYER_1
 10
1642.001450626055
 20
5.859749985201697
 30
0.0
  0
VERTEX
  5
278
  8
LAYER_1
 10
1648.26407033543
 20
6.156776008896304
 30
0.0
  0
VERTEX
  5
279
  8
LAYER_1
 10
1654.593694697905
 20
6.474039782702643
 30
0.0
  0
VERTEX
  5
27A
  8
LAYER_1
 10
1660.987642718139
 20
6.811865014472412
 30
0.0
  0
VERTEX
  5
27B
  8
LAYER_1
 10
1667.44323340079
 20
7.170575412057303
 30
0.0
  0
VERTEX
  5
27C
  8
LAYER_1
 10
1673.957785750515
 20
7.550494683309014
 30
0.0
  0
VERTEX
  5
27D
  8
LAYER_1
 10
1680.528618771971
 20
7.95194653607924
 30
0.0
  0
VERTEX
  5
27E
  8
LAYER_1
 10
1687.153051469816
 20
8.375254678219678
 30
0.0
  0
VERTEX
  5
27F
  8
LAYER_1
 10
1693.828402848707
 20
8.820742817582019
 30
0.0
  0
VERTEX
  5
280
  8
LAYER_1
 10
1700.551991913303
 20
9.288734662017962
 30
0.0
  0
VERTEX
  5
281
  8
LAYER_1
 10
1707.321137668259
 20
9.779553919379204
 30
0.0
  0
VERTEX
  5
282
  8
LAYER_1
 10
1714.133159118235
 20
10.29352429751744
 30
0.0
  0
VERTEX
  5
283
  8
LAYER_1
 10
1720.985375267888
 20
10.83096950428436
 30
0.0
  0
VERTEX
  5
284
  8
LAYER_1
 10
1727.875105121874
 20
11.39221324753166
 30
0.0
  0
VERTEX
  5
285
  8
LAYER_1
 10
1734.799667684852
 20
11.97757923511105
 30
0.0
  0
VERTEX
  5
286
  8
LAYER_1
 10
1741.75638196148
 20
12.58739117487421
 30
0.0
  0
VERTEX
  5
287
  8
LAYER_1
 10
1748.742566956414
 20
13.22197277467284
 30
0.0
  0
VERTEX
  5
288
  8
LAYER_1
 10
1755.755541674312
 20
13.88164774235864
 30
0.0
  0
VERTEX
  5
289
  8
LAYER_1
 10
1762.792625119832
 20
14.56673978578329
 30
0.0
  0
VERTEX
  5
28A
  8
LAYER_1
 10
1769.851136297631
 20
15.27757261279851
 30
0.0
  0
VERTEX
  5
28B
  8
LAYER_1
 10
1776.928394212367
 20
16.01446993125598
 30
0.0
  0
VERTEX
  5
28C
  8
LAYER_1
 10
1784.021717868697
 20
16.77775544900739
 30
0.0
  0
VERTEX
  5
28D
  8
LAYER_1
 10
1791.128426271278
 20
17.56775287390445
 30
0.0
  0
VERTEX
  5
28E
  8
LAYER_1
 10
1798.245838424769
 20
18.38478591379885
 30
0.0
  0
VERTEX
  5
28F
  8
LAYER_1
 10
1805.371273333827
 20
19.22917827654229
 30
0.0
  0
VERTEX
  5
290
  8
LAYER_1
 10
1812.50205000311
 20
20.10125366998646
 30
0.0
  0
VERTEX
  5
291
  8
LAYER_1
 10
1819.635487437274
 20
21.00133580198305
 30
0.0
  0
VERTEX
  5
292
  8
LAYER_1
 10
1826.768904640977
 20
21.92974838038376
 30
0.0
  0
VERTEX
  5
293
  8
LAYER_1
 10
1833.899620618878
 20
22.88681511304029
 30
0.0
  0
VERTEX
  5
294
  8
LAYER_1
 10
1841.024954375633
 20
23.87285970780434
 30
0.0
  0
VERTEX
  5
295
  8
LAYER_1
 10
1844.584765110036
 20
24.37684986218034
 30
0.0
  0
VERTEX
  5
296
  8
LAYER_1
 10
1848.1422249159
 20
24.88820587252759
 30
0.0
  0
VERTEX
  5
297
  8
LAYER_1
 10
1851.696998668806
 20
25.40696820232758
 30
0.0
  0
VERTEX
  5
298
  8
LAYER_1
 10
1855.248751244336
 20
25.93317731506175
 30
0.0
  0
VERTEX
  5
299
  8
LAYER_1
 10
1858.797147518073
 20
26.46687367421157
 30
0.0
  0
VERTEX
  5
29A
  8
LAYER_1
 10
1862.3418523656
 20
27.0080977432585
 30
0.0
  0
VERTEX
  5
29B
  8
LAYER_1
 10
1865.882530662497
 20
27.55688998568401
 30
0.0
  0
VERTEX
  5
29C
  8
LAYER_1
 10
1869.418847284348
 20
28.11329086496955
 30
0.0
  0
VERTEX
  5
29D
  8
LAYER_1
 10
1872.950467106734
 20
28.6773408445966
 30
0.0
  0
VERTEX
  5
29E
  8
LAYER_1
 10
1876.477055005238
 20
29.2490803880466
 30
0.0
  0
VERTEX
  5
29F
  8
LAYER_1
 10
1879.998275855442
 20
29.82854995880102
 30
0.0
  0
VERTEX
  5
2A0
  8
LAYER_1
 10
1883.513794532927
 20
30.41579002034133
 30
0.0
  0
VERTEX
  5
2A1
  8
LAYER_1
 10
1887.023275913277
 20
31.01084103614898
 30
0.0
  0
VERTEX
  5
2A2
  8
LAYER_1
 10
1890.526384872074
 20
31.61374346970544
 30
0.0
  0
VERTEX
  5
2A3
  8
LAYER_1
 10
1894.022786284899
 20
32.22453778449216
 30
0.0
  0
VERTEX
  5
2A4
  8
LAYER_1
 10
1897.512145027335
 20
32.84326444399062
 30
0.0
  0
VERTEX
  5
2A5
  8
LAYER_1
 10
1900.994125974964
 20
33.46996391168228
 30
0.0
  0
VERTEX
  5
2A6
  8
LAYER_1
 10
1904.468394003369
 20
34.10467665104859
 30
0.0
  0
VERTEX
  5
2A7
  8
LAYER_1
 10
1907.93461398813
 20
34.74744312557101
 30
0.0
  0
VERTEX
  5
2A8
  8
LAYER_1
 10
1911.392450804832
 20
35.39830379873101
 30
0.0
  0
VERTEX
  5
2A9
  8
LAYER_1
 10
1914.841569329055
 20
36.05729913401007
 30
0.0
  0
VERTEX
  5
2AA
  8
LAYER_1
 10
1918.281634436382
 20
36.72446959488961
 30
0.0
  0
VERTEX
  5
2AB
  8
LAYER_1
 10
1921.712311002395
 20
37.39985564485113
 30
0.0
  0
VERTEX
  5
2AC
  8
LAYER_1
 10
1925.133263902677
 20
38.08349774737606
 30
0.0
  0
VERTEX
  5
2AD
  8
LAYER_1
 10
1928.544158012809
 20
38.77543636594589
 30
0.0
  0
VERTEX
  5
2AE
  8
LAYER_1
 10
1931.944658208374
 20
39.47571196404207
 30
0.0
  0
VERTEX
  5
2AF
  8
LAYER_1
 10
1935.334429364954
 20
40.18436500514606
 30
0.0
  0
VERTEX
  5
2B0
  8
LAYER_1
 10
1938.713136358131
 20
40.90143595273933
 30
0.0
  0
VERTEX
  5
2B1
  8
LAYER_1
 10
1942.080444063488
 20
41.62696527030334
 30
0.0
  0
VERTEX
  5
2B2
  8
LAYER_1
 10
1945.436017356606
 20
42.36099342131953
 30
0.0
  0
VERTEX
  5
2B3
  8
LAYER_1
 10
1948.779521113067
 20
43.1035608692694
 30
0.0
  0
VERTEX
  5
2B4
  8
LAYER_1
 10
1952.110620208455
 20
43.85470807763438
 30
0.0
  0
VERTEX
  5
2B5
  8
LAYER_1
 10
1955.42897951835
 20
44.61447550989595
 30
0.0
  0
VERTEX
  5
2B6
  8
LAYER_1
 10
1958.734263918336
 20
45.38290362953556
 30
0.0
  0
VERTEX
  5
2B7
  8
LAYER_1
 10
1962.026138283995
 20
46.16003290003469
 30
0.0
  0
VERTEX
  5
2B8
  8
LAYER_1
 10
1965.304267490907
 20
46.94590378487479
 30
0.0
  0
VERTEX
  5
2B9
  8
LAYER_1
 10
1968.568316414657
 20
47.7405567475373
 30
0.0
  0
VERTEX
  5
2BA
  8
LAYER_1
 10
1971.817949930826
 20
48.54403225150373
 30
0.0
  0
VERTEX
  5
2BB
  8
LAYER_1
 10
1975.052832914997
 20
49.35637076025551
 30
0.0
  0
VERTEX
  5
2BC
  8
LAYER_1
 10
1978.27263024275
 20
50.1776127372741
 30
0.0
  0
VERTEX
  5
2BD
  8
LAYER_1
 10
1981.477006789669
 20
51.00779864604097
 30
0.0
  0
VERTEX
  5
2BE
  8
LAYER_1
 10
1984.665627431336
 20
51.84696895003759
 30
0.0
  0
VERTEX
  5
2BF
  8
LAYER_1
 10
1987.838157043333
 20
52.69516411274542
 30
0.0
  0
VERTEX
  5
2C0
  8
LAYER_1
 10
1990.994260501242
 20
53.5524245976459
 30
0.0
  0
VERTEX
  5
2C1
  8
LAYER_1
 10
1994.133602680646
 20
54.4187908682205
 30
0.0
  0
VERTEX
  5
2C2
  8
LAYER_1
 10
1997.255848457126
 20
55.29430338795071
 30
0.0
  0
VERTEX
  5
2C3
  8
LAYER_1
 10
2000.360662706265
 20
56.17900262031797
 30
0.0
  0
VERTEX
  5
2C4
  8
LAYER_1
 10
2003.447710303644
 20
57.07292902880374
 30
0.0
  0
VERTEX
  5
2C5
  8
LAYER_1
 10
2006.516656124847
 20
57.97612307688949
 30
0.0
  0
VERTEX
  5
2C6
  8
LAYER_1
 10
2009.567165045455
 20
58.88862522805667
 30
0.0
  0
VERTEX
  5
2C7
  8
LAYER_1
 10
2012.598901941051
 20
59.81047594578675
 30
0.0
  0
VERTEX
  5
2C8
  8
LAYER_1
 10
2015.611531687216
 20
60.74171569356119
 30
0.0
  0
VERTEX
  5
2C9
  8
LAYER_1
 10
2018.604719159534
 20
61.68238493486145
 30
0.0
  0
VERTEX
  5
2CA
  8
LAYER_1
 10
2021.578129233585
 20
62.63252413316901
 30
0.0
  0
VERTEX
  5
2CB
  8
LAYER_1
 10
2024.531426784953
 20
63.5921737519653
 30
0.0
  0
VERTEX
  5
2CC
  8
LAYER_1
 10
2027.464276689219
 20
64.56137425473182
 30
0.0
  0
VERTEX
  5
2CD
  8
LAYER_1
 10
2030.376343821966
 20
65.54016610495
 30
0.0
  0
VERTEX
  5
2CE
  8
LAYER_1
 10
2033.267293058775
 20
66.5285897661013
 30
0.0
  0
VERTEX
  5
2CF
  8
LAYER_1
 10
2036.13678927523
 20
67.52668570166722
 30
0.0
  0
VERTEX
  5
2D0
  8
LAYER_1
 10
2038.984497346912
 20
68.53449437512919
 30
0.0
  0
VERTEX
  5
2D1
  8
LAYER_1
 10
2041.810082149403
 20
69.55205624996866
 30
0.0
  0
VERTEX
  5
2D2
  8
LAYER_1
 10
2044.613208558286
 20
70.57941178966712
 30
0.0
  0
VERTEX
  5
2D3
  8
LAYER_1
 10
2047.393541449143
 20
71.61660145770603
 30
0.0
  0
VERTEX
  5
2D4
  8
LAYER_1
 10
2050.150745697555
 20
72.66366571756686
 30
0.0
  0
VERTEX
  5
2D5
  8
LAYER_1
 10
2052.884486179106
 20
73.72064503273103
 30
0.0
  0
VERTEX
  5
2D6
  8
LAYER_1
 10
2055.594427769377
 20
74.78757986668003
 30
0.0
  0
VERTEX
  5
2D7
  8
LAYER_1
 10
2058.280235343951
 20
75.86451068289534
 30
0.0
  0
VERTEX
  5
2D8
  8
LAYER_1
 10
2060.941573778409
 20
76.95147794485838
 30
0.0
  0
VERTEX
  5
2D9
  8
LAYER_1
 10
2063.578107948335
 20
78.04852211605063
 30
0.0
  0
VERTEX
  5
2DA
  8
LAYER_1
 10
2066.189502729309
 20
79.15568365995358
 30
0.0
  0
VERTEX
  5
2DB
  8
LAYER_1
 10
2068.775422996915
 20
80.27300304004866
 30
0.0
  0
VERTEX
  5
2DC
  8
LAYER_1
 10
2071.335533626735
 20
81.40052071981735
 30
0.0
  0
VERTEX
  5
2DD
  8
LAYER_1
 10
2073.86949949435
 20
82.53827716274108
 30
0.0
  0
VERTEX
  5
2DE
  8
LAYER_1
 10
2076.376985475343
 20
83.68631283230135
 30
0.0
  0
VERTEX
  5
2DF
  8
LAYER_1
 10
2078.857656445296
 20
84.84466819197962
 30
0.0
  0
VERTEX
  5
2E0
  8
LAYER_1
 10
2081.311177279792
 20
86.01338370525731
 30
0.0
  0
VERTEX
  5
2E1
  8
LAYER_1
 10
2083.737212854411
 20
87.1924998356159
 30
0.0
  0
VERTEX
  5
2E2
  8
LAYER_1
 10
2086.135428044738
 20
88.38205704653689
 30
0.0
  0
VERTEX
  5
2E3
  8
LAYER_1
 10
2088.505487726353
 20
89.5820958015017
 30
0.0
  0
VERTEX
  5
2E4
  8
LAYER_1
 10
2090.847056774839
 20
90.79265656399181
 30
0.0
  0
VERTEX
  5
2E5
  8
LAYER_1
 10
2093.159800065779
 20
92.01377979748868
 30
0.0
  0
VERTEX
  5
2E6
  8
LAYER_1
 10
2095.443382474754
 20
93.24550596547377
 30
0.0
  0
VERTEX
  5
2E7
  8
LAYER_1
 10
2097.697468877346
 20
94.48787553142856
 30
0.0
  0
VERTEX
  5
2E8
  8
LAYER_1
 10
2099.921724149139
 20
95.74092895883447
 30
0.0
  0
VERTEX
  5
2E9
  8
LAYER_1
 10
2102.115813165713
 20
97.00470671117299
 30
0.0
  0
VERTEX
  5
2EA
  8
LAYER_1
 10
2104.279400802652
 20
98.27924925192556
 30
0.0
  0
VERTEX
  5
2EB
  8
LAYER_1
 10
2106.412151935537
 20
99.56459704457367
 30
0.0
  0
VERTEX
  5
2EC
  8
LAYER_1
 10
2108.51373143995
 20
100.8607905525988
 30
0.0
  0
VERTEX
  5
2ED
  8
LAYER_1
 10
2110.583804191474
 20
102.1678702394823
 30
0.0
  0
VERTEX
  5
2EE
  8
LAYER_1
 10
2112.622035065691
 20
103.4858765687058
 30
0.0
  0
VERTEX
  5
2EF
  8
LAYER_1
 10
2114.628088938184
 20
104.8148500037507
 30
0.0
  0
VERTEX
  5
2F0
  8
LAYER_1
 10
2116.601630684533
 20
106.1548310080984
 30
0.0
  0
VERTEX
  5
2F1
  8
LAYER_1
 10
2118.542325180322
 20
107.5058600452304
 30
0.0
  0
VERTEX
  5
2F2
  8
LAYER_1
 10
2120.449837301133
 20
108.8679775786281
 30
0.0
  0
VERTEX
  5
2F3
  8
LAYER_1
 10
2122.323831922547
 20
110.2412240717731
 30
0.0
  0
VERTEX
  5
2F4
  8
LAYER_1
 10
2124.163973920149
 20
111.6256399881468
 30
0.0
  0
VERTEX
  5
2F5
  8
LAYER_1
 10
2125.969928169518
 20
113.0212657912306
 30
0.0
  0
VERTEX
  5
2F6
  8
LAYER_1
 10
2126.859980162235
 20
113.7232950451268
 30
0.0
  0
VERTEX
  5
2F7
  8
LAYER_1
 10
2127.741359546237
 20
114.428141944506
 30
0.0
  0
VERTEX
  5
2F8
  8
LAYER_1
 10
2128.614024430973
 20
115.1358115473036
 30
0.0
  0
VERTEX
  5
2F9
  8
LAYER_1
 10
2129.477932925889
 20
115.8463089114545
 30
0.0
  0
VERTEX
  5
2FA
  8
LAYER_1
 10
2130.333043140434
 20
116.5596390948942
 30
0.0
  0
VERTEX
  5
2FB
  8
LAYER_1
 10
2131.179313184056
 20
117.2758071555576
 30
0.0
  0
VERTEX
  5
2FC
  8
LAYER_1
 10
2132.016701166202
 20
117.99481815138
 30
0.0
  0
VERTEX
  5
2FD
  8
LAYER_1
 10
2132.845165196321
 20
118.7166771402966
 30
0.0
  0
VERTEX
  5
2FE
  8
LAYER_1
 10
2133.664663383858
 20
119.4413891802426
 30
0.0
  0
VERTEX
  5
2FF
  8
LAYER_1
 10
2134.475153838263
 20
120.1689593291531
 30
0.0
  0
VERTEX
  5
300
  8
LAYER_1
 10
2135.276594668984
 20
120.8993926449633
 30
0.0
  0
VERTEX
  5
301
  8
LAYER_1
 10
2136.068943985468
 20
121.6326941856085
 30
0.0
  0
VERTEX
  5
302
  8
LAYER_1
 10
2136.852159897162
 20
122.3688690090238
 30
0.0
  0
VERTEX
  5
303
  8
LAYER_1
 10
2137.626200513516
 20
123.1079221731443
 30
0.0
  0
VERTEX
  5
304
  8
LAYER_1
 10
2138.391023943976
 20
123.8498587359053
 30
0.0
  0
VERTEX
  5
305
  8
LAYER_1
 10
2139.14658829799
 20
124.5946837552419
 30
0.0
  0
VERTEX
  5
306
  8
LAYER_1
 10
2139.892851685006
 20
125.3424022890894
 30
0.0
  0
VERTEX
  5
307
  8
LAYER_1
 10
2140.629772214472
 20
126.0930193953829
 30
0.0
  0
VERTEX
  5
308
  8
LAYER_1
 10
2141.357307995835
 20
126.8465401320575
 30
0.0
  0
VERTEX
  5
309
  8
LAYER_1
 10
2142.075417138544
 20
127.6029695570486
 30
0.0
  0
VERTEX
  5
30A
  8
LAYER_1
 10
2142.784057752046
 20
128.3623127282912
 30
0.0
  0
VERTEX
  5
30B
  8
LAYER_1
 10
2143.483187945789
 20
129.1245747037205
 30
0.0
  0
VERTEX
  5
30C
  8
LAYER_1
 10
2144.17276582922
 20
129.8897605412718
 30
0.0
  0
VERTEX
  5
30D
  8
LAYER_1
 10
2144.852749511788
 20
130.6578752988802
 30
0.0
  0
VERTEX
  5
30E
  8
LAYER_1
 10
2145.52309710294
 20
131.4289240344808
 30
0.0
  0
VERTEX
  5
30F
  8
LAYER_1
 10
2146.183766712124
 20
132.202911806009
 30
0.0
  0
VERTEX
  5
310
  8
LAYER_1
 10
2146.834716448787
 20
132.9798436713998
 30
0.0
  0
VERTEX
  5
311
  8
LAYER_1
 10
2147.475904422378
 20
133.7597246885884
 30
0.0
  0
VERTEX
  5
312
  8
LAYER_1
 10
2148.107288742344
 20
134.5425599155101
 30
0.0
  0
VERTEX
  5
313
  8
LAYER_1
 10
2148.728827518134
 20
135.3283544100999
 30
0.0
  0
VERTEX
  5
314
  8
LAYER_1
 10
2149.340478859194
 20
136.1171132302931
 30
0.0
  0
VERTEX
  5
315
  8
LAYER_1
 10
2149.942200874973
 20
136.9088414340249
 30
0.0
  0
VERTEX
  5
316
  8
LAYER_1
 10
2150.533951674919
 20
137.7035440792305
 30
0.0
  0
VERTEX
  5
317
  8
LAYER_1
 10
2151.115689368478
 20
138.501226223845
 30
0.0
  0
VERTEX
  5
318
  8
LAYER_1
 10
2151.6873720651
 20
139.3018929258035
 30
0.0
  0
VERTEX
  5
319
  8
LAYER_1
 10
2152.248957874231
 20
140.1055492430415
 30
0.0
  0
VERTEX
  5
31A
  8
LAYER_1
 10
2152.80040490532
 20
140.9122002334938
 30
0.0
  0
VERTEX
  5
31B
  8
LAYER_1
 10
2153.341671267814
 20
141.7218509550959
 30
0.0
  0
VERTEX
  5
31C
  8
LAYER_1
 10
2153.87271507116
 20
142.5345064657828
 30
0.0
  0
VERTEX
  5
31D
  8
LAYER_1
 10
2154.393494424808
 20
143.3501718234897
 30
0.0
  0
VERTEX
  5
31E
  8
LAYER_1
 10
2154.903967438204
 20
144.1688520861518
 30
0.0
  0
VERTEX
  5
31F
  8
LAYER_1
 10
2155.404092220796
 20
144.9905523117043
 30
0.0
  0
VERTEX
  5
320
  8
LAYER_1
 10
2155.893826882033
 20
145.8152775580824
 30
0.0
  0
VERTEX
  5
321
  8
LAYER_1
 10
2156.373129531361
 20
146.6430328832213
 30
0.0
  0
VERTEX
  5
322
  8
LAYER_1
 10
2156.84195827823
 20
147.473823345056
 30
0.0
  0
VERTEX
  5
323
  8
LAYER_1
 10
2157.300271232085
 20
148.307654001522
 30
0.0
  0
VERTEX
  5
324
  8
LAYER_1
 10
2157.748026502376
 20
149.1445299105542
 30
0.0
  0
VERTEX
  5
325
  8
LAYER_1
 10
2158.18518219855
 20
149.984456130088
 30
0.0
  0
VERTEX
  5
326
  8
LAYER_1
 10
2158.611696430055
 20
150.8274377180584
 30
0.0
  0
VERTEX
  5
327
  8
LAYER_1
 10
2159.027527306338
 20
151.6734797324007
 30
0.0
  0
VERTEX
  5
328
  8
LAYER_1
 10
2159.432632936847
 20
152.52258723105
 30
0.0
  0
VERTEX
  5
329
  8
LAYER_1
 10
2159.82697143103
 20
153.3747652719415
 30
0.0
  0
VERTEX
  5
32A
  8
LAYER_1
 10
2160.210500898335
 20
154.2300189130104
 30
0.0
  0
VERTEX
  5
32B
  8
LAYER_1
 10
2160.583179448211
 20
155.0883532121919
 30
0.0
  0
VERTEX
  5
32C
  8
LAYER_1
 10
2160.944965190103
 20
155.9497732274212
 30
0.0
  0
VERTEX
  5
32D
  8
LAYER_1
 10
2161.29581623346
 20
156.8142840166335
 30
0.0
  0
VERTEX
  5
32E
  8
LAYER_1
 10
2161.635690687731
 20
157.6818906377639
 30
0.0
  0
VERTEX
  5
32F
  8
LAYER_1
 10
2161.964546662362
 20
158.5525981487476
 30
0.0
  0
VERTEX
  5
330
  8
LAYER_1
 10
2162.282342266801
 20
159.4264116075198
 30
0.0
  0
VERTEX
  5
331
  8
LAYER_1
 10
2162.589035610497
 20
160.3033360720156
 30
0.0
  0
VERTEX
  5
332
  8
LAYER_1
 10
2162.884584802897
 20
161.1833766001704
 30
0.0
  0
VERTEX
  5
333
  8
LAYER_1
 10
2163.168947953449
 20
162.0665382499192
 30
0.0
  0
VERTEX
  5
334
  8
LAYER_1
 10
2163.4420831716
 20
162.9528260791973
 30
0.0
  0
VERTEX
  5
335
  8
LAYER_1
 10
2163.703948566799
 20
163.8422451459397
 30
0.0
  0
VERTEX
  5
336
  8
LAYER_1
 10
2163.954502248493
 20
164.7348005080818
 30
0.0
  0
VERTEX
  5
337
  8
LAYER_1
 10
2164.19370232613
 20
165.6304972235586
 30
0.0
  0
VERTEX
  5
338
  8
LAYER_1
 10
2164.421506909157
 20
166.5293403503054
 30
0.0
  0
VERTEX
  5
339
  8
LAYER_1
 10
2164.637874107023
 20
167.4313349462574
 30
0.0
  0
VERTEX
  5
33A
  8
LAYER_1
 10
2164.842762029176
 20
168.3364860693496
 30
0.0
  0
VERTEX
  5
33B
  8
LAYER_1
 10
2165.036128785062
 20
169.2447987775174
 30
0.0
  0
VERTEX
  5
33C
  8
LAYER_1
 10
2165.21793248413
 20
170.1562781286959
 30
0.0
  0
VERTEX
  5
33D
  8
LAYER_1
 10
2165.388131235827
 20
171.0709291808202
 30
0.0
  0
VERTEX
  5
33E
  8
LAYER_1
 10
2165.546683149602
 20
171.9887569918257
 30
0.0
  0
VERTEX
  5
33F
  8
LAYER_1
 10
2165.693546334902
 20
172.9097666196473
 30
0.0
  0
VERTEX
  5
340
  8
LAYER_1
 10
2165.828678901175
 20
173.8339631222204
 30
0.0
  0
VERTEX
  5
341
  8
LAYER_1
 10
2165.952038957868
 20
174.7613515574801
 30
0.0
  0
VERTEX
  5
342
  8
LAYER_1
 10
2166.063584614431
 20
175.6919369833616
 30
0.0
  0
VERTEX
  5
343
  8
LAYER_1
 10
2166.163273980309
 20
176.6257244578001
 30
0.0
  0
VERTEX
  5
344
  8
LAYER_1
 10
2166.25106516495
 20
177.5627190387306
 30
0.0
  0
VERTEX
  5
345
  8
LAYER_1
 10
2166.326916277804
 20
178.5029257840886
 30
0.0
  0
VERTEX
  5
346
  8
LAYER_1
 10
2166.390785428317
 20
179.4463497518091
 30
0.0
  0
VERTEX
  5
347
  8
LAYER_1
 10
2166.442630725938
 20
180.3929959998273
 30
0.0
  0
VERTEX
  5
348
  8
LAYER_1
 10
2166.482410280114
 20
181.3428695860783
 30
0.0
  0
VERTEX
  5
349
  8
LAYER_1
 10
2166.510082200292
 20
182.2959755684975
 30
0.0
  0
VERTEX
  5
34A
  8
LAYER_1
 10
2166.525604595922
 20
183.2523190050199
 30
0.0
  0
VERTEX
  5
34B
  8
LAYER_1
 10
2166.528935576449
 20
184.2119049535807
 30
0.0
  0
VERTEX
  5
34C
  8
LAYER_1
 10
2166.520033251323
 20
185.1747384721151
 30
0.0
  0
VERTEX
  5
34D
  8
LAYER_1
 10
2166.498855729991
 20
186.1408246185584
 30
0.0
  0
VERTEX
  5
34E
  8
LAYER_1
 10
2166.4653611219
 20
187.1101684508456
 30
0.0
  0
VERTEX
  5
34F
  8
LAYER_1
 10
2166.419507536499
 20
188.082775026912
 30
0.0
  0
VERTEX
  5
350
  8
LAYER_1
 10
2166.361253083235
 20
189.0586494046928
 30
0.0
  0
VERTEX
  5
351
  8
LAYER_1
 10
2166.290555871556
 20
190.0377966421231
 30
0.0
  0
VERTEX
  5
352
  8
LAYER_1
 10
2166.20737401091
 20
191.0202217971381
 30
0.0
  0
VERTEX
  5
353
  8
LAYER_1
 10
2166.111665610744
 20
192.005929927673
 30
0.0
  0
VERTEX
  5
354
  8
LAYER_1
 10
2166.003388780507
 20
192.9949260916629
 30
0.0
  0
VERTEX
  5
355
  8
LAYER_1
 10
2165.882501629646
 20
193.9872153470432
 30
0.0
  0
VERTEX
  5
356
  8
LAYER_1
 10
2165.748962267609
 20
194.9828027517489
 30
0.0
  0
VERTEX
  5
357
  8
LAYER_1
 10
2165.602728803844
 20
195.9816933637152
 30
0.0
  0
VERTEX
  5
358
  8
LAYER_1
 10
2165.443759347798
 20
196.9838922408773
 30
0.0
  0
VERTEX
  5
359
  8
LAYER_1
 10
2165.272012008919
 20
197.9894044411704
 30
0.0
  0
VERTEX
  5
35A
  8
LAYER_1
 10
2165.087444896655
 20
198.9982350225297
 30
0.0
  0
VERTEX
  5
35B
  8
LAYER_1
 10
2164.890016120454
 20
200.0103890428904
 30
0.0
  0
VERTEX
  5
35C
  8
LAYER_1
 10
2164.679683789763
 20
201.0258715601876
 30
0.0
  0
VERTEX
  5
35D
  8
LAYER_1
 10
2164.456406014031
 20
202.0446876323565
 30
0.0
  0
VERTEX
  5
35E
  8
LAYER_1
 10
2164.220140902706
 20
203.0668423173323
 30
0.0
  0
VERTEX
  5
35F
  8
LAYER_1
 10
2163.970846565233
 20
204.0923406730503
 30
0.0
  0
VERTEX
  5
360
  8
LAYER_1
 10
2163.708481111063
 20
205.1211877574455
 30
0.0
  0
VERTEX
  5
361
  8
LAYER_1
 10
2163.433002649641
 20
206.1533886284531
 30
0.0
  0
VERTEX
  5
362
  8
LAYER_1
 10
2163.144369290417
 20
207.1889483440084
 30
0.0
  0
VERTEX
  5
363
  8
LAYER_1
 10
2162.842539142838
 20
208.2278719620465
 30
0.0
  0
VERTEX
  5
364
  8
LAYER_1
 10
2162.527470316352
 20
209.2701645405027
 30
0.0
  0
VERTEX
  5
365
  8
LAYER_1
 10
2162.199120920406
 20
210.315831137312
 30
0.0
  0
VERTEX
  5
366
  8
LAYER_1
 10
2161.857449064449
 20
211.3648768104096
 30
0.0
  0
VERTEX
  5
367
  8
LAYER_1
 10
2161.502412857927
 20
212.4173066177308
 30
0.0
  0
VERTEX
  5
368
  8
LAYER_1
 10
2161.133970410289
 20
213.4731256172108
 30
0.0
  0
VERTEX
  5
369
  8
LAYER_1
 10
2160.752079830983
 20
214.5323388667847
 30
0.0
  0
VERTEX
  5
36A
  8
LAYER_1
 10
2160.356699229456
 20
215.5949514243877
 30
0.0
  0
VERTEX
  5
36B
  8
LAYER_1
 10
2159.947786715157
 20
216.660968347955
 30
0.0
  0
VERTEX
  5
36C
  8
LAYER_1
 10
2159.525300397532
 20
217.7303946954217
 30
0.0
  0
VERTEX
  5
36D
  8
LAYER_1
 10
2159.089198386031
 20
218.8032355247231
 30
0.0
  0
VERTEX
  5
36E
  8
LAYER_1
 10
2158.639438790099
 20
219.8794958937943
 30
0.0
  0
VERTEX
  5
36F
  8
LAYER_1
 10
2158.175979719186
 20
220.9591808605705
 30
0.0
  0
VERTEX
  5
370
  8
LAYER_1
 10
2157.698779282739
 20
222.0422954829869
 30
0.0
  0
VERTEX
  5
371
  8
LAYER_1
 10
2157.207795590206
 20
223.1288448189787
 30
0.0
  0
VERTEX
  5
372
  8
LAYER_1
 10
2156.702986751034
 20
224.2188339264811
 30
0.0
  0
VERTEX
  5
373
  8
LAYER_1
 10
2156.184310874672
 20
225.3122678634292
 30
0.0
  0
VERTEX
  5
374
  8
LAYER_1
 10
2155.651726070566
 20
226.4091516877583
 30
0.0
  0
VERTEX
  5
375
  8
LAYER_1
 10
2155.105190448166
 20
227.5094904574034
 30
0.0
  0
VERTEX
  5
376
  8
LAYER_1
 10
2154.544662116919
 20
228.6132892302999
 30
0.0
  0
VERTEX
  5
377
  8
LAYER_1
 10
2153.970099186271
 20
229.7205530643828
 30
0.0
  0
VERTEX
  5
378
  8
LAYER_1
 10
2153.381459765672
 20
230.8312870175874
 30
0.0
  0
VERTEX
  5
379
  8
LAYER_1
 10
2152.778701964568
 20
231.9454961478488
 30
0.0
  0
VERTEX
  5
37A
  8
LAYER_1
 10
2152.161783892409
 20
233.0631855131023
 30
0.0
  0
VERTEX
  5
37B
  8
LAYER_1
 10
2151.530663658641
 20
234.1843601712829
 30
0.0
  0
VERTEX
  5
37C
  8
LAYER_1
 10
2150.885299372712
 20
235.309025180326
 30
0.0
  0
VERTEX
  5
37D
  8
LAYER_1
 10
2150.225649144071
 20
236.4371855981666
 30
0.0
  0
VERTEX
  5
37E
  8
LAYER_1
 10
2149.551671082165
 20
237.56884648274
 30
0.0
  0
VERTEX
  5
37F
  8
LAYER_1
 10
2148.863323296441
 20
238.7040128919813
 30
0.0
  0
VERTEX
  5
380
  8
LAYER_1
 10
2145.195006106438
 20
245.0479334539152
 30
0.0
  0
VERTEX
  5
381
  8
LAYER_1
 10
2141.566678116522
 20
251.3509205001826
 30
0.0
  0
VERTEX
  5
382
  8
LAYER_1
 10
2137.97784062243
 20
257.6127494336761
 30
0.0
  0
VERTEX
  5
383
  8
LAYER_1
 10
2134.427994919899
 20
263.8331956572882
 30
0.0
  0
VERTEX
  5
384
  8
LAYER_1
 10
2130.916642304666
 20
270.0120345739115
 30
0.0
  0
VERTEX
  5
385
  8
LAYER_1
 10
2127.443284072468
 20
276.1490415864384
 30
0.0
  0
VERTEX
  5
386
  8
LAYER_1
 10
2124.007421519042
 20
282.2439920977617
 30
0.0
  0
VERTEX
  5
387
  8
LAYER_1
 10
2120.608555940124
 20
288.2966615107738
 30
0.0
  0
VERTEX
  5
388
  8
LAYER_1
 10
2117.246188631453
 20
294.3068252283673
 30
0.0
  0
VERTEX
  5
389
  8
LAYER_1
 10
2113.919820888765
 20
300.2742586534347
 30
0.0
  0
VERTEX
  5
38A
  8
LAYER_1
 10
2110.628954007796
 20
306.1987371888687
 30
0.0
  0
VERTEX
  5
38B
  8
LAYER_1
 10
2107.373089284284
 20
312.0800362375616
 30
0.0
  0
VERTEX
  5
38C
  8
LAYER_1
 10
2104.151728013966
 20
317.9179312024062
 30
0.0
  0
VERTEX
  5
38D
  8
LAYER_1
 10
2100.964371492579
 20
323.712197486295
 30
0.0
  0
VERTEX
  5
38E
  8
LAYER_1
 10
2097.81052101586
 20
329.4626104921205
 30
0.0
  0
VERTEX
  5
38F
  8
LAYER_1
 10
2094.689677879545
 20
335.1689456227753
 30
0.0
  0
VERTEX
  5
390
  8
LAYER_1
 10
2088.545018811079
 20
346.4484838701429
 30
0.0
  0
VERTEX
  5
391
  8
LAYER_1
 10
2082.526404653075
 20
357.5490154515383
 30
0.0
  0
VERTEX
  5
392
  8
LAYER_1
 10
2076.629845771431
 20
368.4687435901018
 30
0.0
  0
VERTEX
  5
393
  8
LAYER_1
 10
2070.851352532042
 20
379.2058715089741
 30
0.0
  0
VERTEX
  5
394
  8
LAYER_1
 10
2065.186935300804
 20
389.7586024312956
 30
0.0
  0
VERTEX
  5
395
  8
LAYER_1
 10
2059.632604443613
 20
400.1251395802065
 30
0.0
  0
VERTEX
  5
396
  8
LAYER_1
 10
2048.838243314955
 20
420.2924454503589
 30
0.0
  0
VERTEX
  5
397
  8
LAYER_1
 10
2043.59023377528
 20
430.0896206178812
 30
0.0
  0
VERTEX
  5
398
  8
LAYER_1
 10
2038.436352073235
 20
439.6934149045549
 30
0.0
  0
VERTEX
  5
399
  8
LAYER_1
 10
2033.372608574718
 20
449.1020315335203
 30
0.0
  0
VERTEX
  5
39A
  8
LAYER_1
 10
2028.395013645622
 20
458.3136737279179
 30
0.0
  0
VERTEX
  5
39B
  8
LAYER_1
 10
2023.499577651845
 20
467.3265447108882
 30
0.0
  0
VERTEX
  5
39C
  8
LAYER_1
 10
2021.081422495044
 20
471.7578795053196
 30
0.0
  0
VERTEX
  5
39D
  8
LAYER_1
 10
2018.682310959283
 20
476.1388477055717
 30
0.0
  0
VERTEX
  5
39E
  8
LAYER_1
 10
2016.301744340299
 20
480.4692247145373
 30
0.0
  0
VERTEX
  5
39F
  8
LAYER_1
 10
2013.93922393383
 20
484.7487859351088
 30
0.0
  0
VERTEX
  5
3A0
  8
LAYER_1
 10
2011.594251035613
 20
488.9773067701788
 30
0.0
  0
VERTEX
  5
3A1
  8
LAYER_1
 10
2009.266326941384
 20
493.1545626226398
 30
0.0
  0
VERTEX
  5
3A2
  8
LAYER_1
 10
2006.95495294688
 20
497.2803288953844
 30
0.0
  0
VERTEX
  5
3A3
  8
LAYER_1
 10
2004.65963034784
 20
501.3543809913052
 30
0.0
  0
VERTEX
  5
3A4
  8
LAYER_1
 10
2002.379860439999
 20
505.3764943132948
 30
0.0
  0
VERTEX
  5
3A5
  8
LAYER_1
 10
2000.115144519094
 20
509.3464442642456
 30
0.0
  0
VERTEX
  5
3A6
  8
LAYER_1
 10
1997.864983880863
 20
513.2640062470502
 30
0.0
  0
VERTEX
  5
3A7
  8
LAYER_1
 10
1995.628879821042
 20
517.1289556646013
 30
0.0
  0
VERTEX
  5
3A8
  8
LAYER_1
 10
1993.406333635368
 20
520.9410679197914
 30
0.0
  0
VERTEX
  5
3A9
  8
LAYER_1
 10
1991.196846619579
 20
524.7001184155129
 30
0.0
  0
VERTEX
  5
3AA
  8
LAYER_1
 10
1988.999920069412
 20
528.4058825546583
 30
0.0
  0
VERTEX
  5
3AB
  8
LAYER_1
 10
1986.815055280603
 20
532.0581357401205
 30
0.0
  0
VERTEX
  5
3AC
  8
LAYER_1
 10
1984.641753548889
 20
535.6566533747919
 30
0.0
  0
VERTEX
  5
3AD
  8
LAYER_1
 10
1982.479516170008
 20
539.201210861565
 30
0.0
  0
VERTEX
  5
3AE
  8
LAYER_1
 10
1980.327844439696
 20
542.6915836033323
 30
0.0
  0
VERTEX
  5
3AF
  8
LAYER_1
 10
1978.186239653691
 20
546.1275470029865
 30
0.0
  0
VERTEX
  5
3B0
  8
LAYER_1
 10
1976.054203107729
 20
549.50887646342
 30
0.0
  0
VERTEX
  5
3B1
  8
LAYER_1
 10
1973.931236097548
 20
552.8353473875256
 30
0.0
  0
VERTEX
  5
3B2
  8
LAYER_1
 10
1971.816839918883
 20
556.1067351781957
 30
0.0
  0
VERTEX
  5
3B3
  8
LAYER_1
 10
1969.710515867473
 20
559.3228152383227
 30
0.0
  0
VERTEX
  5
3B4
  8
LAYER_1
 10
1967.611765239055
 20
562.4833629707994
 30
0.0
  0
VERTEX
  5
3B5
  8
LAYER_1
 10
1965.520089329365
 20
565.5881537785183
 30
0.0
  0
VERTEX
  5
3B6
  8
LAYER_1
 10
1963.43498943414
 20
568.6369630643719
 30
0.0
  0
VERTEX
  5
3B7
  8
LAYER_1
 10
1961.355966849118
 20
571.6295662312527
 30
0.0
  0
VERTEX
  5
3B8
  8
LAYER_1
 10
1959.282522870035
 20
574.5657386820534
 30
0.0
  0
VERTEX
  5
3B9
  8
LAYER_1
 10
1957.214158792628
 20
577.4452558196665
 30
0.0
  0
VERTEX
  5
3BA
  8
LAYER_1
 10
1956.181725871971
 20
578.8636984594316
 30
0.0
  0
VERTEX
  5
3BB
  8
LAYER_1
 10
1955.150375912634
 20
580.2678930469846
 30
0.0
  0
VERTEX
  5
3BC
  8
LAYER_1
 10
1954.120046576586
 20
581.6578115076869
 30
0.0
  0
VERTEX
  5
3BD
  8
LAYER_1
 10
1953.090675525792
 20
583.0334257669001
 30
0.0
  0
VERTEX
  5
3BE
  8
LAYER_1
 10
1952.062200422219
 20
584.3947077499859
 30
0.0
  0
VERTEX
  5
3BF
  8
LAYER_1
 10
1951.034558927836
 20
585.7416293823057
 30
0.0
  0
VERTEX
  5
3C0
  8
LAYER_1
 10
1950.007688704608
 20
587.0741625892213
 30
0.0
  0
VERTEX
  5
3C1
  8
LAYER_1
 10
1948.981527414504
 20
588.3922792960939
 30
0.0
  0
VERTEX
  5
3C2
  8
LAYER_1
 10
1947.95601271949
 20
589.6959514282854
 30
0.0
  0
VERTEX
  5
3C3
  8
LAYER_1
 10
1946.931082281534
 20
590.9851509111572
 30
0.0
  0
VERTEX
  5
3C4
  8
LAYER_1
 10
1945.906673762602
 20
592.259849670071
 30
0.0
  0
VERTEX
  5
3C5
  8
LAYER_1
 10
1944.882724824661
 20
593.5200196303883
 30
0.0
  0
VERTEX
  5
3C6
  8
LAYER_1
 10
1943.85917312968
 20
594.7656327174707
 30
0.0
  0
VERTEX
  5
3C7
  8
LAYER_1
 10
1942.835956339625
 20
595.9966608566798
 30
0.0
  0
VERTEX
  5
3C8
  8
LAYER_1
 10
1941.813012116462
 20
597.213075973377
 30
0.0
  0
VERTEX
  5
3C9
  8
LAYER_1
 10
1940.79027812216
 20
598.414849992924
 30
0.0
  0
VERTEX
  5
3CA
  8
LAYER_1
 10
1939.767692018685
 20
599.6019548406823
 30
0.0
  0
VERTEX
  5
3CB
  8
LAYER_1
 10
1938.745191468004
 20
600.7743624420136
 30
0.0
  0
VERTEX
  5
3CC
  8
LAYER_1
 10
1937.722714132086
 20
601.9320447222794
 30
0.0
  0
VERTEX
  5
3CD
  8
LAYER_1
 10
1936.700197672895
 20
603.0749736068412
 30
0.0
  0
VERTEX
  5
3CE
  8
LAYER_1
 10
1935.677579752401
 20
604.2031210210606
 30
0.0
  0
VERTEX
  5
3CF
  8
LAYER_1
 10
1934.654798032569
 20
605.3164588902994
 30
0.0
  0
VERTEX
  5
3D0
  8
LAYER_1
 10
1933.631790175368
 20
606.4149591399188
 30
0.0
  0
VERTEX
  5
3D1
  8
LAYER_1
 10
1932.608493842764
 20
607.4985936952805
 30
0.0
  0
VERTEX
  5
3D2
  8
LAYER_1
 10
1931.584846696724
 20
608.5673344817461
 30
0.0
  0
VERTEX
  5
3D3
  8
LAYER_1
 10
1930.560786399215
 20
609.6211534246772
 30
0.0
  0
VERTEX
  5
3D4
  8
LAYER_1
 10
1929.536250612206
 20
610.6600224494355
 30
0.0
  0
VERTEX
  5
3D5
  8
LAYER_1
 10
1928.511176997661
 20
611.6839134813822
 30
0.0
  0
VERTEX
  5
3D6
  8
LAYER_1
 10
1927.48550321755
 20
612.6927984458791
 30
0.0
  0
VERTEX
  5
3D7
  8
LAYER_1
 10
1926.459166933838
 20
613.6866492682879
 30
0.0
  0
VERTEX
  5
3D8
  8
LAYER_1
 10
1925.432105808493
 20
614.66543787397
 30
0.0
  0
VERTEX
  5
3D9
  8
LAYER_1
 10
1924.404257503483
 20
615.6291361882868
 30
0.0
  0
VERTEX
  5
3DA
  8
LAYER_1
 10
1923.375559680774
 20
616.5777161366001
 30
0.0
  0
VERTEX
  5
3DB
  8
LAYER_1
 10
1922.345950002333
 20
617.5111496442715
 30
0.0
  0
VERTEX
  5
3DC
  8
LAYER_1
 10
1921.315366130128
 20
618.4294086366624
 30
0.0
  0
VERTEX
  5
3DD
  8
LAYER_1
 10
1920.283745726126
 20
619.3324650391346
 30
0.0
  0
VERTEX
  5
3DE
  8
LAYER_1
 10
1919.251026452293
 20
620.2202907770495
 30
0.0
  0
VERTEX
  5
3DF
  8
LAYER_1
 10
1918.217145970597
 20
621.0928577757686
 30
0.0
  0
VERTEX
  5
3E0
  8
LAYER_1
 10
1917.182041943005
 20
621.9501379606536
 30
0.0
  0
VERTEX
  5
3E1
  8
LAYER_1
 10
1916.145652031485
 20
622.7921032570663
 30
0.0
  0
VERTEX
  5
3E2
  8
LAYER_1
 10
1915.107913898002
 20
623.6187255903678
 30
0.0
  0
VERTEX
  5
3E3
  8
LAYER_1
 10
1914.068765204525
 20
624.42997688592
 30
0.0
  0
VERTEX
  5
3E4
  8
LAYER_1
 10
1913.028143613021
 20
625.2258290690843
 30
0.0
  0
VERTEX
  5
3E5
  8
LAYER_1
 10
1911.985986785456
 20
626.0062540652223
 30
0.0
  0
VERTEX
  5
3E6
  8
LAYER_1
 10
1910.942232383798
 20
626.7712237996955
 30
0.0
  0
VERTEX
  5
3E7
  8
LAYER_1
 10
1909.896818070014
 20
627.5207101978656
 30
0.0
  0
VERTEX
  5
3E8
  8
LAYER_1
 10
1908.849681506071
 20
628.2546851850942
 30
0.0
  0
VERTEX
  5
3E9
  8
LAYER_1
 10
1907.800760353936
 20
628.9731206867428
 30
0.0
  0
VERTEX
  5
3EA
  8
LAYER_1
 10
1906.749992275576
 20
629.6759886281731
 30
0.0
  0
VERTEX
  5
3EB
  8
LAYER_1
 10
1905.697314932959
 20
630.3632609347463
 30
0.0
  0
VERTEX
  5
3EC
  8
LAYER_1
 10
1904.642665988051
 20
631.0349095318243
 30
0.0
  0
VERTEX
  5
3ED
  8
LAYER_1
 10
1903.58598310282
 20
631.6909063447686
 30
0.0
  0
VERTEX
  5
3EE
  8
LAYER_1
 10
1902.527203939233
 20
632.3312232989406
 30
0.0
  0
VERTEX
  5
3EF
  8
LAYER_1
 10
1901.466266159256
 20
632.9558323197023
 30
0.0
  0
VERTEX
  5
3F0
  8
LAYER_1
 10
1900.403107424858
 20
633.5647053324147
 30
0.0
  0
VERTEX
  5
3F1
  8
LAYER_1
 10
1899.337665398005
 20
634.1578142624398
 30
0.0
  0
VERTEX
  5
3F2
  8
LAYER_1
 10
1898.269877740664
 20
634.7351310351391
 30
0.0
  0
VERTEX
  5
3F3
  8
LAYER_1
 10
1897.199682114802
 20
635.296627575874
 30
0.0
  0
VERTEX
  5
3F4
  8
LAYER_1
 10
1896.127016182387
 20
635.8422758100062
 30
0.0
  0
VERTEX
  5
3F5
  8
LAYER_1
 10
1895.051817605386
 20
636.3720476628972
 30
0.0
  0
VERTEX
  5
3F6
  8
LAYER_1
 10
1893.974024045765
 20
636.8859150599086
 30
0.0
  0
VERTEX
  5
3F7
  8
LAYER_1
 10
1892.893573165492
 20
637.383849926402
 30
0.0
  0
VERTEX
  5
3F8
  8
LAYER_1
 10
1891.810402626534
 20
637.865824187739
 30
0.0
  0
VERTEX
  5
3F9
  8
LAYER_1
 10
1890.724450090858
 20
638.331809769281
 30
0.0
  0
VERTEX
  5
3FA
  8
LAYER_1
 10
1889.635653220432
 20
638.7817785963897
 30
0.0
  0
VERTEX
  5
3FB
  8
LAYER_1
 10
1888.543949677222
 20
639.2157025944267
 30
0.0
  0
VERTEX
  5
3FC
  8
LAYER_1
 10
1887.449277123195
 20
639.6335536887534
 30
0.0
  0
VERTEX
  5
3FD
  8
LAYER_1
 10
1886.351573220319
 20
640.0353038047317
 30
0.0
  0
VERTEX
  5
3FE
  8
LAYER_1
 10
1885.250775630561
 20
640.4209248677228
 30
0.0
  0
VERTEX
  5
3FF
  8
LAYER_1
 10
1884.146822015888
 20
640.7903888030885
 30
0.0
  0
VERTEX
  5
400
  8
LAYER_1
 10
1883.039650038266
 20
641.1436675361903
 30
0.0
  0
VERTEX
  5
401
  8
LAYER_1
 10
1881.929197359664
 20
641.4807329923897
 30
0.0
  0
VERTEX
  5
402
  8
LAYER_1
 10
1880.815401642049
 20
641.8015570970483
 30
0.0
  0
VERTEX
  5
403
  8
LAYER_1
 10
1879.698200547386
 20
642.1061117755278
 30
0.0
  0
VERTEX
  5
404
  8
LAYER_1
 10
1878.577531737644
 20
642.3943689531897
 30
0.0
  0
VERTEX
  5
405
  8
LAYER_1
 10
1877.453332874789
 20
642.6663005553955
 30
0.0
  0
VERTEX
  5
406
  8
LAYER_1
 10
1876.325541620789
 20
642.9218785075068
 30
0.0
  0
VERTEX
  5
407
  8
LAYER_1
 10
1875.194095637612
 20
643.1610747348852
 30
0.0
  0
VERTEX
  5
408
  8
LAYER_1
 10
1874.058932587222
 20
643.3838611628921
 30
0.0
  0
VERTEX
  5
409
  8
LAYER_1
 10
1872.91999013159
 20
643.5902097168895
 30
0.0
  0
VERTEX
  5
40A
  8
LAYER_1
 10
1871.77720593268
 20
643.7800923222386
 30
0.0
  0
VERTEX
  5
40B
  8
LAYER_1
 10
1870.630517652461
 20
643.9534809043009
 30
0.0
  0
VERTEX
  5
40C
  8
LAYER_1
 10
1869.4798629529
 20
644.1103473884383
 30
0.0
  0
VERTEX
  5
40D
  8
LAYER_1
 10
1868.325179495962
 20
644.2506637000122
 30
0.0
  0
VERTEX
  5
40E
  8
LAYER_1
 10
1867.166404943617
 20
644.3744017643842
 30
0.0
  0
VERTEX
  5
40F
  8
LAYER_1
 10
1866.003476957831
 20
644.4815335069158
 30
0.0
  0
VERTEX
  5
410
  8
LAYER_1
 10
1864.83633320057
 20
644.5720308529685
 30
0.0
  0
VERTEX
  5
411
  8
LAYER_1
 10
1863.664911333803
 20
644.645865727904
 30
0.0
  0
VERTEX
  5
412
  8
LAYER_1
 10
1862.489149019495
 20
644.7030100570839
 30
0.0
  0
VERTEX
  5
413
  8
LAYER_1
 10
1861.308983919615
 20
644.7434357658697
 30
0.0
  0
VERTEX
  5
414
  8
LAYER_1
 10
1860.12435369613
 20
644.7671147796231
 30
0.0
  0
VERTEX
  5
415
  8
LAYER_1
 10
1858.935196011006
 20
644.7740190237055
 30
0.0
  0
VERTEX
  5
416
  8
LAYER_1
 10
1857.741448526211
 20
644.7641204234784
 30
0.0
  0
VERTEX
  5
417
  8
LAYER_1
 10
1856.543048903712
 20
644.7373909043037
 30
0.0
  0
VERTEX
  5
418
  8
LAYER_1
 10
1855.339934805476
 20
644.6938023915425
 30
0.0
  0
VERTEX
  5
419
  8
LAYER_1
 10
1854.132043893469
 20
644.6333268105568
 30
0.0
  0
VERTEX
  5
41A
  8
LAYER_1
 10
1852.91931382966
 20
644.555936086708
 30
0.0
  0
VERTEX
  5
41B
  8
LAYER_1
 10
1851.701682276016
 20
644.4616021453578
 30
0.0
  0
VERTEX
  5
41C
  8
LAYER_1
 10
1850.479086894503
 20
644.3502969118674
 30
0.0
  0
VERTEX
  5
41D
  8
LAYER_1
 10
1849.251465347088
 20
644.2219923115988
 30
0.0
  0
VERTEX
  5
41E
  8
LAYER_1
 10
1848.018755295739
 20
644.0766602699132
 30
0.0
  0
VERTEX
  5
41F
  8
LAYER_1
 10
1846.780894402423
 20
643.9142727121724
 30
0.0
  0
VERTEX
  5
420
  8
LAYER_1
 10
1845.537820329107
 20
643.7348015637381
 30
0.0
  0
VERTEX
  5
421
  8
LAYER_1
 10
1844.289470737758
 20
643.5382187499715
 30
0.0
  0
VERTEX
  5
422
  8
LAYER_1
 10
1843.035783290344
 20
643.3244961962345
 30
0.0
  0
VERTEX
  5
423
  8
LAYER_1
 10
1841.77669564883
 20
643.0936058278885
 30
0.0
  0
VERTEX
  5
424
  8
LAYER_1
 10
1840.512145475185
 20
642.845519570295
 30
0.0
  0
VERTEX
  5
425
  8
LAYER_1
 10
1839.242070431376
 20
642.5802093488157
 30
0.0
  0
VERTEX
  5
426
  8
LAYER_1
 10
1837.966408179369
 20
642.2976470888123
 30
0.0
  0
VERTEX
  5
427
  8
LAYER_1
 10
1836.685096381132
 20
641.9978047156459
 30
0.0
  0
VERTEX
  5
428
  8
LAYER_1
 10
1835.398072698632
 20
641.6806541546786
 30
0.0
  0
VERTEX
  5
429
  8
LAYER_1
 10
1834.105274793837
 20
641.3461673312717
 30
0.0
  0
VERTEX
  5
42A
  8
LAYER_1
 10
1832.661909614578
 20
640.9546505025344
 30
0.0
  0
VERTEX
  5
42B
  8
LAYER_1
 10
1831.233239524337
 20
640.5486010135791
 30
0.0
  0
VERTEX
  5
42C
  8
LAYER_1
 10
1829.8191550271
 20
640.1281214821927
 30
0.0
  0
VERTEX
  5
42D
  8
LAYER_1
 10
1828.419546626855
 20
639.6933145261621
 30
0.0
  0
VERTEX
  5
42E
  8
LAYER_1
 10
1827.034304827588
 20
639.2442827632747
 30
0.0
  0
VERTEX
  5
42F
  8
LAYER_1
 10
1825.663320133287
 20
638.7811288113172
 30
0.0
  0
VERTEX
  5
430
  8
LAYER_1
 10
1824.30648304794
 20
638.3039552880768
 30
0.0
  0
VERTEX
  5
431
  8
LAYER_1
 10
1822.963684075532
 20
637.8128648113407
 30
0.0
  0
VERTEX
  5
432
  8
LAYER_1
 10
1821.634813720053
 20
637.3079599988955
 30
0.0
  0
VERTEX
  5
433
  8
LAYER_1
 10
1820.319762485489
 20
636.7893434685288
 30
0.0
  0
VERTEX
  5
434
  8
LAYER_1
 10
1819.018420875827
 20
636.2571178380272
 30
0.0
  0
VERTEX
  5
435
  8
LAYER_1
 10
1817.730679395055
 20
635.7113857251779
 30
0.0
  0
VERTEX
  5
436
  8
LAYER_1
 10
1816.456428547159
 20
635.1522497477679
 30
0.0
  0
VERTEX
  5
437
  8
LAYER_1
 10
1815.195558836128
 20
634.5798125235842
 30
0.0
  0
VERTEX
  5
438
  8
LAYER_1
 10
1813.947960765948
 20
633.994176670414
 30
0.0
  0
VERTEX
  5
439
  8
LAYER_1
 10
1812.713524840606
 20
633.3954448060442
 30
0.0
  0
VERTEX
  5
43A
  8
LAYER_1
 10
1811.492141564091
 20
632.7837195482618
 30
0.0
  0
VERTEX
  5
43B
  8
LAYER_1
 10
1810.283701440388
 20
632.159103514854
 30
0.0
  0
VERTEX
  5
43C
  8
LAYER_1
 10
1809.088094973486
 20
631.5216993236079
 30
0.0
  0
VERTEX
  5
43D
  8
LAYER_1
 10
1807.905212667372
 20
630.8716095923103
 30
0.0
  0
VERTEX
  5
43E
  8
LAYER_1
 10
1806.734945026032
 20
630.2089369387483
 30
0.0
  0
VERTEX
  5
43F
  8
LAYER_1
 10
1805.577182553455
 20
629.5337839807089
 30
0.0
  0
VERTEX
  5
440
  8
LAYER_1
 10
1804.431815753627
 20
628.8462533359793
 30
0.0
  0
VERTEX
  5
441
  8
LAYER_1
 10
1803.298735130537
 20
628.1464476223464
 30
0.0
  0
VERTEX
  5
442
  8
LAYER_1
 10
1802.17783118817
 20
627.4344694575973
 30
0.0
  0
VERTEX
  5
443
  8
LAYER_1
 10
1801.068994430514
 20
626.7104214595192
 30
0.0
  0
VERTEX
  5
444
  8
LAYER_1
 10
1799.972115361556
 20
625.974406245899
 30
0.0
  0
VERTEX
  5
445
  8
LAYER_1
 10
1798.887084485285
 20
625.2265264345235
 30
0.0
  0
VERTEX
  5
446
  8
LAYER_1
 10
1797.813792305687
 20
624.46688464318
 30
0.0
  0
VERTEX
  5
447
  8
LAYER_1
 10
1796.752129326748
 20
623.6955834896555
 30
0.0
  0
VERTEX
  5
448
  8
LAYER_1
 10
1795.701986052457
 20
622.9127255917372
 30
0.0
  0
VERTEX
  5
449
  8
LAYER_1
 10
1794.663252986802
 20
622.1184135672117
 30
0.0
  0
VERTEX
  5
44A
  8
LAYER_1
 10
1793.635820633768
 20
621.3127500338665
 30
0.0
  0
VERTEX
  5
44B
  8
LAYER_1
 10
1792.619579497343
 20
620.4958376094883
 30
0.0
  0
VERTEX
  5
44C
  8
LAYER_1
 10
1791.614420081516
 20
619.6677789118644
 30
0.0
  0
VERTEX
  5
44D
  8
LAYER_1
 10
1790.620232890272
 20
618.8286765587818
 30
0.0
  0
VERTEX
  5
44E
  8
LAYER_1
 10
1789.636908427599
 20
617.9786331680275
 30
0.0
  0
VERTEX
  5
44F
  8
LAYER_1
 10
1788.664337197485
 20
617.1177513573884
 30
0.0
  0
VERTEX
  5
450
  8
LAYER_1
 10
1787.702409703916
 20
616.2461337446517
 30
0.0
  0
VERTEX
  5
451
  8
LAYER_1
 10
1786.75101645088
 20
615.3638829476043
 30
0.0
  0
VERTEX
  5
452
  8
LAYER_1
 10
1785.810047942364
 20
614.4711015840334
 30
0.0
  0
VERTEX
  5
453
  8
LAYER_1
 10
1784.879394682356
 20
613.5678922717259
 30
0.0
  0
VERTEX
  5
454
  8
LAYER_1
 10
1783.958947174843
 20
612.654357628469
 30
0.0
  0
VERTEX
  5
455
  8
LAYER_1
 10
1783.048595923811
 20
611.7306002720497
 30
0.0
  0
VERTEX
  5
456
  8
LAYER_1
 10
1782.148231433249
 20
610.796722820255
 30
0.0
  0
VERTEX
  5
457
  8
LAYER_1
 10
1781.257744207143
 20
609.8528278908718
 30
0.0
  0
VERTEX
  5
458
  8
LAYER_1
 10
1780.377024749481
 20
608.8990181016873
 30
0.0
  0
VERTEX
  5
459
  8
LAYER_1
 10
1779.50596356425
 20
607.9353960704885
 30
0.0
  0
VERTEX
  5
45A
  8
LAYER_1
 10
1778.644451155437
 20
606.9620644150625
 30
0.0
  0
VERTEX
  5
45B
  8
LAYER_1
 10
1777.79237802703
 20
605.9791257531963
 30
0.0
  0
VERTEX
  5
45C
  8
LAYER_1
 10
1776.949634683015
 20
604.9866827026768
 30
0.0
  0
VERTEX
  5
45D
  8
LAYER_1
 10
1776.116111627381
 20
603.9848378812912
 30
0.0
  0
VERTEX
  5
45E
  8
LAYER_1
 10
1775.291699364114
 20
602.9736939068266
 30
0.0
  0
VERTEX
  5
45F
  8
LAYER_1
 10
1774.476288397202
 20
601.9533533970699
 30
0.0
  0
VERTEX
  5
460
  8
LAYER_1
 10
1773.669769230631
 20
600.9239189698083
 30
0.0
  0
VERTEX
  5
461
  8
LAYER_1
 10
1772.87203236839
 20
599.8854932428285
 30
0.0
  0
VERTEX
  5
462
  8
LAYER_1
 10
1772.082968314465
 20
598.8381788339178
 30
0.0
  0
VERTEX
  5
463
  8
LAYER_1
 10
1771.302467572843
 20
597.7820783608634
 30
0.0
  0
VERTEX
  5
464
  8
LAYER_1
 10
1770.530420647513
 20
596.7172944414519
 30
0.0
  0
VERTEX
  5
465
  8
LAYER_1
 10
1769.766718042461
 20
595.6439296934708
 30
0.0
  0
VERTEX
  5
466
  8
LAYER_1
 10
1769.011250261673
 20
594.5620867347068
 30
0.0
  0
VERTEX
  5
467
  8
LAYER_1
 10
1768.263907809139
 20
593.4718681829471
 30
0.0
  0
VERTEX
  5
468
  8
LAYER_1
 10
1767.524581188845
 20
592.3733766559787
 30
0.0
  0
VERTEX
  5
469
  8
LAYER_1
 10
1766.793160904778
 20
591.2667147715886
 30
0.0
  0
VERTEX
  5
46A
  8
LAYER_1
 10
1766.069537460925
 20
590.1519851475639
 30
0.0
  0
VERTEX
  5
46B
  8
LAYER_1
 10
1765.353601361274
 20
589.0292904016916
 30
0.0
  0
VERTEX
  5
46C
  8
LAYER_1
 10
1764.645243109813
 20
587.8987331517587
 30
0.0
  0
VERTEX
  5
46D
  8
LAYER_1
 10
1763.944353210527
 20
586.7604160155524
 30
0.0
  0
VERTEX
  5
46E
  8
LAYER_1
 10
1763.250822167405
 20
585.6144416108598
 30
0.0
  0
VERTEX
  5
46F
  8
LAYER_1
 10
1762.564540484434
 20
584.4609125554675
 30
0.0
  0
VERTEX
  5
470
  8
LAYER_1
 10
1761.885398665601
 20
583.2999314671629
 30
0.0
  0
VERTEX
  5
471
  8
LAYER_1
 10
1761.213287214893
 20
582.131600963733
 30
0.0
  0
VERTEX
  5
472
  8
LAYER_1
 10
1760.548096636298
 20
580.9560236629648
 30
0.0
  0
VERTEX
  5
473
  8
LAYER_1
 10
1759.889717433803
 20
579.7733021826452
 30
0.0
  0
VERTEX
  5
474
  8
LAYER_1
 10
1759.238040111394
 20
578.5835391405615
 30
0.0
  0
VERTEX
  5
475
  8
LAYER_1
 10
1758.59295517306
 20
577.3868371545007
 30
0.0
  0
VERTEX
  5
476
  8
LAYER_1
 10
1757.954353122788
 20
576.1832988422498
 30
0.0
  0
VERTEX
  5
477
  8
LAYER_1
 10
1757.322124464565
 20
574.9730268215956
 30
0.0
  0
VERTEX
  5
478
  8
LAYER_1
 10
1756.696159702377
 20
573.7561237103253
 30
0.0
  0
VERTEX
  5
479
  8
LAYER_1
 10
1756.076349340213
 20
572.532692126226
 30
0.0
  0
VERTEX
  5
47A
  8
LAYER_1
 10
1755.46258388206
 20
571.3028346870849
 30
0.0
  0
VERTEX
  5
47B
  8
LAYER_1
 10
1754.854753831905
 20
570.0666540106887
 30
0.0
  0
VERTEX
  5
47C
  8
LAYER_1
 10
1754.252749693735
 20
568.8242527148245
 30
0.0
  0
VERTEX
  5
47D
  8
LAYER_1
 10
1753.656461971538
 20
567.5757334172797
 30
0.0
  0
VERTEX
  5
47E
  8
LAYER_1
 10
1752.480597791009
 20
565.0607512882955
 30
0.0
  0
VERTEX
  5
47F
  8
LAYER_1
 10
1751.326285322217
 20
562.5225285660321
 30
0.0
  0
VERTEX
  5
480
  8
LAYER_1
 10
1750.192648597061
 20
559.9618861927861
 30
0.0
  0
VERTEX
  5
481
  8
LAYER_1
 10
1749.078811647437
 20
557.3796451108537
 30
0.0
  0
VERTEX
  5
482
  8
LAYER_1
 10
1747.983898505245
 20
554.7766262625313
 30
0.0
  0
VERTEX
  5
483
  8
LAYER_1
 10
1746.907033202383
 20
552.1536505901151
 30
0.0
  0
VERTEX
  5
484
  8
LAYER_1
 10
1745.847339770748
 20
549.5115390359016
 30
0.0
  0
VERTEX
  5
485
  8
LAYER_1
 10
1744.803942242239
 20
546.8511125421869
 30
0.0
  0
VERTEX
  5
486
  8
LAYER_1
 10
1743.775964648753
 20
544.1731920512675
 30
0.0
  0
VERTEX
  5
487
  8
LAYER_1
 10
1742.762531022189
 20
541.4785985054397
 30
0.0
  0
VERTEX
  5
488
  8
LAYER_1
 10
1741.762765394446
 20
538.7681528469996
 30
0.0
  0
VERTEX
  5
489
  8
LAYER_1
 10
1740.77579179742
 20
536.0426760182438
 30
0.0
  0
VERTEX
  5
48A
  8
LAYER_1
 10
1739.80073426301
 20
533.3029889614685
 30
0.0
  0
VERTEX
  5
48B
  8
LAYER_1
 10
1738.836716823114
 20
530.5499126189699
 30
0.0
  0
VERTEX
  5
48C
  8
LAYER_1
 10
1737.882863509631
 20
527.7842679330442
 30
0.0
  0
VERTEX
  5
48D
  8
LAYER_1
 10
1736.938298354458
 20
525.0068758459884
 30
0.0
  0
VERTEX
  5
48E
  8
LAYER_1
 10
1736.002145389494
 20
522.2185573000982
 30
0.0
  0
VERTEX
  5
48F
  8
LAYER_1
 10
1735.073528646636
 20
519.4201332376699
 30
0.0
  0
VERTEX
  5
490
  8
LAYER_1
 10
1734.151572157783
 20
516.6124246010002
 30
0.0
  0
VERTEX
  5
491
  8
LAYER_1
 10
1733.235399954833
 20
513.7962523323852
 30
0.0
  0
VERTEX
  5
492
  8
LAYER_1
 10
1731.416904534234
 20
508.1418006685045
 30
0.0
  0
VERTEX
  5
493
  8
LAYER_1
 10
1729.611034640023
 20
502.4633457843984
 30
0.0
  0
VERTEX
  5
494
  8
LAYER_1
 10
1727.810782527385
 20
496.7674552184374
 30
0.0
  0
VERTEX
  5
495
  8
LAYER_1
 10
1726.009140451506
 20
491.0606965089921
 30
0.0
  0
VERTEX
  5
496
  8
LAYER_1
 10
1724.199100667569
 20
485.3496371944331
 30
0.0
  0
VERTEX
  5
497
  8
LAYER_1
 10
1722.37365543076
 20
479.6408448131308
 30
0.0
  0
VERTEX
  5
498
  8
LAYER_1
 10
1720.525796996264
 20
473.9408869034558
 30
0.0
  0
VERTEX
  5
499
  8
LAYER_1
 10
1719.591272909628
 20
471.0962732312193
 30
0.0
  0
VERTEX
  5
49A
  8
LAYER_1
 10
1718.648517619265
 20
468.2563310037787
 30
0.0
  0
VERTEX
  5
49B
  8
LAYER_1
 10
1717.696655157072
 20
465.42188116343
 30
0.0
  0
VERTEX
  5
49C
  8
LAYER_1
 10
1716.734809554947
 20
462.5937446524699
 30
0.0
  0
VERTEX
  5
49D
  8
LAYER_1
 10
1715.76210484479
 20
459.7727424131944
 30
0.0
  0
VERTEX
  5
49E
  8
LAYER_1
 10
1714.777665058497
 20
456.9596953879
 30
0.0
  0
VERTEX
  5
49F
  8
LAYER_1
 10
1713.780614227967
 20
454.1554245188829
 30
0.0
  0
VERTEX
  5
4A0
  8
LAYER_1
 10
1712.770076385098
 20
451.3607507484395
 30
0.0
  0
VERTEX
  5
4A1
  8
LAYER_1
 10
1711.745175561789
 20
448.5764950188661
 30
0.0
  0
VERTEX
  5
4A2
  8
LAYER_1
 10
1710.705035789937
 20
445.803478272459
 30
0.0
  0
VERTEX
  5
4A3
  8
LAYER_1
 10
1709.648781101439
 20
443.0425214515146
 30
0.0
  0
VERTEX
  5
4A4
  8
LAYER_1
 10
1708.575535528196
 20
440.294445498329
 30
0.0
  0
VERTEX
  5
4A5
  8
LAYER_1
 10
1707.484423102104
 20
437.5600713551987
 30
0.0
  0
VERTEX
  5
4A6
  8
LAYER_1
 10
1706.374567855061
 20
434.84021996442
 30
0.0
  0
VERTEX
  5
4A7
  8
LAYER_1
 10
1705.245093818966
 20
432.1357122682892
 30
0.0
  0
VERTEX
  5
4A8
  8
LAYER_1
 10
1704.095125025718
 20
429.4473692091026
 30
0.0
  0
VERTEX
  5
4A9
  8
LAYER_1
 10
1702.923785507212
 20
426.7760117291565
 30
0.0
  0
VERTEX
  5
4AA
  8
LAYER_1
 10
1701.730199295349
 20
424.1224607707472
 30
0.0
  0
VERTEX
  5
4AB
  8
LAYER_1
 10
1700.513490422027
 20
421.4875372761712
 30
0.0
  0
VERTEX
  5
4AC
  8
LAYER_1
 10
1699.896191247286
 20
420.1773173722882
 30
0.0
  0
VERTEX
  5
4AD
  8
LAYER_1
 10
1699.272782919142
 20
418.8720621877246
 30
0.0
  0
VERTEX
  5
4AE
  8
LAYER_1
 10
1698.643155941582
 20
417.5718743402674
 30
0.0
  0
VERTEX
  5
4AF
  8
LAYER_1
 10
1698.007200818593
 20
416.2768564477037
 30
0.0
  0
VERTEX
  5
4B0
  8
LAYER_1
 10
1697.364808054164
 20
414.9871111278206
 30
0.0
  0
VERTEX
  5
4B1
  8
LAYER_1
 10
1696.715868152279
 20
413.702740998405
 30
0.0
  0
VERTEX
  5
4B2
  8
LAYER_1
 10
1696.060271616929
 20
412.4238486772441
 30
0.0
  0
VERTEX
  5
4B3
  8
LAYER_1
 10
1695.397908952098
 20
411.1505367821247
 30
0.0
  0
VERTEX
  5
4B4
  8
LAYER_1
 10
1694.728670661775
 20
409.8829079308341
 30
0.0
  0
VERTEX
  5
4B5
  8
LAYER_1
 10
1694.052447249947
 20
408.6210647411592
 30
0.0
  0
VERTEX
  5
4B6
  8
LAYER_1
 10
1693.369129220602
 20
407.365109830887
 30
0.0
  0
VERTEX
  5
4B7
  8
LAYER_1
 10
1692.678607077725
 20
406.1151458178047
 30
0.0
  0
VERTEX
  5
4B8
  8
LAYER_1
 10
1691.980771325305
 20
404.8712753196992
 30
0.0
  0
VERTEX
  5
4B9
  8
LAYER_1
 10
1691.27551246733
 20
403.6336009543576
 30
0.0
  0
VERTEX
  5
4BA
  8
LAYER_1
 10
1690.562721007785
 20
402.4022253395669
 30
0.0
  0
VERTEX
  5
4BB
  8
LAYER_1
 10
1689.842287450659
 20
401.1772510931142
 30
0.0
  0
VERTEX
  5
4BC
  8
LAYER_1
 10
1689.114102299939
 20
399.9587808327865
 30
0.0
  0
VERTEX
  5
4BD
  8
LAYER_1
 10
1688.378056059612
 20
398.7469171763707
 30
0.0
  0
VERTEX
  5
4BE
  8
LAYER_1
 10
1687.634039233665
 20
397.5417627416541
 30
0.0
  0
VERTEX
  5
4BF
  8
LAYER_1
 10
1686.881942326086
 20
396.3434201464236
 30
0.0
  0
VERTEX
  5
4C0
  8
LAYER_1
 10
1686.121655840861
 20
395.1519920084663
 30
0.0
  0
VERTEX
  5
4C1
  8
LAYER_1
 10
1685.353070281979
 20
393.9675809455692
 30
0.0
  0
VERTEX
  5
4C2
  8
LAYER_1
 10
1684.576076153426
 20
392.7902895755193
 30
0.0
  0
VERTEX
  5
4C3
  8
LAYER_1
 10
1683.790563959189
 20
391.6202205161037
 30
0.0
  0
VERTEX
  5
4C4
  8
LAYER_1
 10
1682.996424203256
 20
390.4574763851094
 30
0.0
  0
VERTEX
  5
4C5
  8
LAYER_1
 10
1682.193547389615
 20
389.3021598003235
 30
0.0
  0
VERTEX
  5
4C6
  8
LAYER_1
 10
1681.381824022251
 20
388.154373379533
 30
0.0
  0
VERTEX
  5
4C7
  8
LAYER_1
 10
1680.561144605154
 20
387.0142197405249
 30
0.0
  0
VERTEX
  5
4C8
  8
LAYER_1
 10
1679.731399642309
 20
385.8818015010863
 30
0.0
  0
VERTEX
  5
4C9
  8
LAYER_1
 10
1678.892479637705
 20
384.7572212790041
 30
0.0
  0
VERTEX
  5
4CA
  8
LAYER_1
 10
1678.044275095328
 20
383.6405816920656
 30
0.0
  0
VERTEX
  5
4CB
  8
LAYER_1
 10
1677.186676519165
 20
382.5319853580576
 30
0.0
  0
VERTEX
  5
4CC
  8
LAYER_1
 10
1676.319574413205
 20
381.4315348947673
 30
0.0
  0
VERTEX
  5
4CD
  8
LAYER_1
 10
1675.442859281434
 20
380.3393329199816
 30
0.0
  0
VERTEX
  5
4CE
  8
LAYER_1
 10
1674.556421627839
 20
379.2554820514877
 30
0.0
  0
VERTEX
  5
4CF
  8
LAYER_1
 10
1673.660151956408
 20
378.1800849070726
 30
0.0
  0
VERTEX
  5
4D0
  8
LAYER_1
 10
1672.753940771128
 20
377.1132441045231
 30
0.0
  0
VERTEX
  5
4D1
  8
LAYER_1
 10
1671.837678575986
 20
376.0550622616266
 30
0.0
  0
VERTEX
  5
4D2
  8
LAYER_1
 10
1670.91125587497
 20
375.0056419961699
 30
0.0
  0
VERTEX
  5
4D3
  8
LAYER_1
 10
1669.974563172067
 20
373.9650859259402
 30
0.0
  0
VERTEX
  5
4D4
  8
LAYER_1
 10
1669.027490971263
 20
372.9334966687244
 30
0.0
  0
VERTEX
  5
4D5
  8
LAYER_1
 10
1668.069929776547
 20
371.9109768423095
 30
0.0
  0
VERTEX
  5
4D6
  8
LAYER_1
 10
1667.101770091906
 20
370.8976290644827
 30
0.0
  0
VERTEX
  5
4D7
  8
LAYER_1
 10
1666.122902421326
 20
369.8935559530311
 30
0.0
  0
VERTEX
  5
4D8
  8
LAYER_1
 10
1665.133217268796
 20
368.8988601257414
 30
0.0
  0
VERTEX
  5
4D9
  8
LAYER_1
 10
1664.132605138302
 20
367.913644200401
 30
0.0
  0
VERTEX
  5
4DA
  8
LAYER_1
 10
1663.120956533831
 20
366.9380107947968
 30
0.0
  0
VERTEX
  5
4DB
  8
LAYER_1
 10
1662.098161959372
 20
365.9720625267157
 30
0.0
  0
VERTEX
  5
4DC
  8
LAYER_1
 10
1661.06411191891
 20
365.0159020139449
 30
0.0
  0
VERTEX
  5
4DD
  8
LAYER_1
 10
1660.018696916434
 20
364.0696318742715
 30
0.0
  0
VERTEX
  5
4DE
  8
LAYER_1
 10
1658.961807455931
 20
363.1333547254824
 30
0.0
  0
VERTEX
  5
4DF
  8
LAYER_1
 10
1657.893334041387
 20
362.2071731853647
 30
0.0
  0
VERTEX
  5
4E0
  8
LAYER_1
 10
1656.813167176791
 20
361.2911898717055
 30
0.0
  0
VERTEX
  5
4E1
  8
LAYER_1
 10
1655.72119736613
 20
360.3855074022916
 30
0.0
  0
VERTEX
  5
4E2
  8
LAYER_1
 10
1654.61731511339
 20
359.4902283949103
 30
0.0
  0
VERTEX
  5
4E3
  8
LAYER_1
 10
1653.501410922559
 20
358.6054554673485
 30
0.0
  0
VERTEX
  5
4E4
  8
LAYER_1
 10
1652.373375297624
 20
357.7312912373933
 30
0.0
  0
VERTEX
  5
4E5
  8
LAYER_1
 10
1651.233098742573
 20
356.8678383228317
 30
0.0
  0
VERTEX
  5
4E6
  8
LAYER_1
 10
1650.080471761392
 20
356.0151993414509
 30
0.0
  0
VERTEX
  5
4E7
  8
LAYER_1
 10
1648.91538485807
 20
355.1734769110377
 30
0.0
  0
VERTEX
  5
4E8
  8
LAYER_1
 10
1647.737728536593
 20
354.3427736493792
 30
0.0
  0
VERTEX
  5
4E9
  8
LAYER_1
 10
1646.547393300948
 20
353.5231921742625
 30
0.0
  0
VERTEX
  5
4EA
  8
LAYER_1
 10
1645.344269655124
 20
352.7148351034747
 30
0.0
  0
VERTEX
  5
4EB
  8
LAYER_1
 10
1644.128248103106
 20
351.9178050548027
 30
0.0
  0
VERTEX
  5
4EC
  8
LAYER_1
 10
1642.899219148883
 20
351.1322046460335
 30
0.0
  0
VERTEX
  5
4ED
  8
LAYER_1
 10
1641.657073296441
 20
350.3581364949544
 30
0.0
  0
VERTEX
  5
4EE
  8
LAYER_1
 10
1639.941943723233
 20
349.5348240763997
 30
0.0
  0
VERTEX
  5
4EF
  8
LAYER_1
 10
1638.211391565545
 20
348.7242325172758
 30
0.0
  0
VERTEX
  5
4F0
  8
LAYER_1
 10
1636.465588479173
 20
347.9263418532631
 30
0.0
  0
VERTEX
  5
4F1
  8
LAYER_1
 10
1634.704706119914
 20
347.1411321200417
 30
0.0
  0
VERTEX
  5
4F2
  8
LAYER_1
 10
1632.928916143565
 20
346.3685833532919
 30
0.0
  0
VERTEX
  5
4F3
  8
LAYER_1
 10
1631.138390205923
 20
345.608675588694
 30
0.0
  0
VERTEX
  5
4F4
  8
LAYER_1
 10
1629.333299962785
 20
344.8613888619281
 30
0.0
  0
VERTEX
  5
4F5
  8
LAYER_1
 10
1627.513817069949
 20
344.1267032086745
 30
0.0
  0
VERTEX
  5
4F6
  8
LAYER_1
 10
1625.68011318321
 20
343.4045986646134
 30
0.0
  0
VERTEX
  5
4F7
  8
LAYER_1
 10
1623.832359958367
 20
342.695055265425
 30
0.0
  0
VERTEX
  5
4F8
  8
LAYER_1
 10
1621.970729051215
 20
341.9980530467895
 30
0.0
  0
VERTEX
  5
4F9
  8
LAYER_1
 10
1620.095392117554
 20
341.3135720443872
 30
0.0
  0
VERTEX
  5
4FA
  8
LAYER_1
 10
1618.206520813178
 20
340.6415922938984
 30
0.0
  0
VERTEX
  5
4FB
  8
LAYER_1
 10
1616.304286793885
 20
339.9820938310031
 30
0.0
  0
VERTEX
  5
4FC
  8
LAYER_1
 10
1614.388861715473
 20
339.3350566913817
 30
0.0
  0
VERTEX
  5
4FD
  8
LAYER_1
 10
1612.460417233739
 20
338.7004609107143
 30
0.0
  0
VERTEX
  5
4FE
  8
LAYER_1
 10
1610.519125004478
 20
338.0782865246812
 30
0.0
  0
VERTEX
  5
4FF
  8
LAYER_1
 10
1608.565156683489
 20
337.4685135689627
 30
0.0
  0
VERTEX
  5
500
  8
LAYER_1
 10
1606.598683926568
 20
336.8711220792389
 30
0.0
  0
VERTEX
  5
501
  8
LAYER_1
 10
1604.619878389513
 20
336.28609209119
 30
0.0
  0
VERTEX
  5
502
  8
LAYER_1
 10
1602.62891172812
 20
335.7134036404964
 30
0.0
  0
VERTEX
  5
503
  8
LAYER_1
 10
1600.625955598186
 20
335.1530367628382
 30
0.0
  0
VERTEX
  5
504
  8
LAYER_1
 10
1598.611181655509
 20
334.6049714938955
 30
0.0
  0
VERTEX
  5
505
  8
LAYER_1
 10
1596.584761555886
 20
334.0691878693488
 30
0.0
  0
VERTEX
  5
506
  8
LAYER_1
 10
1594.546866955113
 20
333.5456659248782
 30
0.0
  0
VERTEX
  5
507
  8
LAYER_1
 10
1592.497669508987
 20
333.0343856961639
 30
0.0
  0
VERTEX
  5
508
  8
LAYER_1
 10
1590.437340873306
 20
332.5353272188861
 30
0.0
  0
VERTEX
  5
509
  8
LAYER_1
 10
1588.366052703867
 20
332.0484705287251
 30
0.0
  0
VERTEX
  5
50A
  8
LAYER_1
 10
1586.283976656466
 20
331.5737956613611
 30
0.0
  0
VERTEX
  5
50B
  8
LAYER_1
 10
1584.191284386901
 20
331.1112826524744
 30
0.0
  0
VERTEX
  5
50C
  8
LAYER_1
 10
1582.088147550969
 20
330.6609115377451
 30
0.0
  0
VERTEX
  5
50D
  8
LAYER_1
 10
1579.974737804466
 20
330.2226623528533
 30
0.0
  0
VERTEX
  5
50E
  8
LAYER_1
 10
1577.85122680319
 20
329.7965151334795
 30
0.0
  0
VERTEX
  5
50F
  8
LAYER_1
 10
1575.717786202937
 20
329.3824499153038
 30
0.0
  0
VERTEX
  5
510
  8
LAYER_1
 10
1573.574587659505
 20
328.9804467340065
 30
0.0
  0
VERTEX
  5
511
  8
LAYER_1
 10
1571.421802828691
 20
328.5904856252678
 30
0.0
  0
VERTEX
  5
512
  8
LAYER_1
 10
1569.259603366292
 20
328.2125466247678
 30
0.0
  0
VERTEX
  5
513
  8
LAYER_1
 10
1567.088160928104
 20
327.8466097681869
 30
0.0
  0
VERTEX
  5
514
  8
LAYER_1
 10
1564.907647169925
 20
327.4926550912052
 30
0.0
  0
VERTEX
  5
515
  8
LAYER_1
 10
1562.718233747552
 20
327.1506626295029
 30
0.0
  0
VERTEX
  5
516
  8
LAYER_1
 10
1560.520092316782
 20
326.8206124187603
 30
0.0
  0
VERTEX
  5
517
  8
LAYER_1
 10
1558.313394533412
 20
326.5024844946577
 30
0.0
  0
VERTEX
  5
518
  8
LAYER_1
 10
1556.098312053239
 20
326.1962588928752
 30
0.0
  0
VERTEX
  5
519
  8
LAYER_1
 10
1553.875016532059
 20
325.9019156490931
 30
0.0
  0
VERTEX
  5
51A
  8
LAYER_1
 10
1551.643679625671
 20
325.6194347989915
 30
0.0
  0
VERTEX
  5
51B
  8
LAYER_1
 10
1549.404472989871
 20
325.3487963782508
 30
0.0
  0
VERTEX
  5
51C
  8
LAYER_1
 10
1547.157568280455
 20
325.0899804225511
 30
0.0
  0
VERTEX
  5
51D
  8
LAYER_1
 10
1544.903137153221
 20
324.8429669675727
 30
0.0
  0
VERTEX
  5
51E
  8
LAYER_1
 10
1542.641351263967
 20
324.6077360489958
 30
0.0
  0
VERTEX
  5
51F
  8
LAYER_1
 10
1540.372382268489
 20
324.3842677025006
 30
0.0
  0
VERTEX
  5
520
  8
LAYER_1
 10
1538.096401822583
 20
324.1725419637672
 30
0.0
  0
VERTEX
  5
521
  8
LAYER_1
 10
1535.813581582048
 20
323.9725388684761
 30
0.0
  0
VERTEX
  5
522
  8
LAYER_1
 10
1533.52409320268
 20
323.7842384523075
 30
0.0
  0
VERTEX
  5
523
  8
LAYER_1
 10
1531.228108340275
 20
323.6076207509414
 30
0.0
  0
VERTEX
  5
524
  8
LAYER_1
 10
1528.925798650632
 20
323.4426658000581
 30
0.0
  0
VERTEX
  5
525
  8
LAYER_1
 10
1526.617335789547
 20
323.2893536353379
 30
0.0
  0
VERTEX
  5
526
  8
LAYER_1
 10
1524.302891412818
 20
323.1476642924611
 30
0.0
  0
VERTEX
  5
527
  8
LAYER_1
 10
1521.98263717624
 20
323.0175778071076
 30
0.0
  0
VERTEX
  5
528
  8
LAYER_1
 10
1519.656744735612
 20
322.899074214958
 30
0.0
  0
VERTEX
  5
529
  8
LAYER_1
 10
1517.32538574673
 20
322.7921335516924
 30
0.0
  0
VERTEX
  5
52A
  8
LAYER_1
 10
1514.988731865391
 20
322.6967358529909
 30
0.0
  0
VERTEX
  5
52B
  8
LAYER_1
 10
1512.646954747393
 20
322.6128611545338
 30
0.0
  0
VERTEX
  5
52C
  8
LAYER_1
 10
1510.300226048531
 20
322.5404894920014
 30
0.0
  0
VERTEX
  5
52D
  8
LAYER_1
 10
1507.948717424605
 20
322.4796009010738
 30
0.0
  0
VERTEX
  5
52E
  8
LAYER_1
 10
1505.592600531409
 20
322.4301754174313
 30
0.0
  0
VERTEX
  5
52F
  8
LAYER_1
 10
1503.232047024742
 20
322.3921930767542
 30
0.0
  0
VERTEX
  5
530
  8
LAYER_1
 10
1500.8672285604
 20
322.3656339147225
 30
0.0
  0
VERTEX
  5
531
  8
LAYER_1
 10
1498.498316794181
 20
322.3504779670167
 30
0.0
  0
VERTEX
  5
532
  8
LAYER_1
 10
1496.125483381881
 20
322.3467052693168
 30
0.0
  0
VERTEX
  5
533
  8
LAYER_1
 10
1493.748899979298
 20
322.3542958573032
 30
0.0
  0
VERTEX
  5
534
  8
LAYER_1
 10
1491.368738242228
 20
322.3732297666559
 30
0.0
  0
VERTEX
  5
535
  8
LAYER_1
 10
1488.985169826469
 20
322.4034870330554
 30
0.0
  0
VERTEX
  5
536
  8
LAYER_1
 10
1486.598366387817
 20
322.4450476921817
 30
0.0
  0
VERTEX
  5
537
  8
LAYER_1
 10
1484.208499582069
 20
322.4978917797152
 30
0.0
  0
VERTEX
  5
538
  8
LAYER_1
 10
1481.815741065024
 20
322.561999331336
 30
0.0
  0
VERTEX
  5
539
  8
LAYER_1
 10
1479.420262492476
 20
322.6373503827244
 30
0.0
  0
VERTEX
  5
53A
  8
LAYER_1
 10
1477.022235520225
 20
322.7239249695605
 30
0.0
  0
VERTEX
  5
53B
  8
LAYER_1
 10
1474.621831804066
 20
322.8217031275246
 30
0.0
  0
VERTEX
  5
53C
  8
LAYER_1
 10
1472.219222999797
 20
322.930664892297
 30
0.0
  0
VERTEX
  5
53D
  8
LAYER_1
 10
1469.814580763214
 20
323.0507902995579
 30
0.0
  0
VERTEX
  5
53E
  8
LAYER_1
 10
1467.408076750115
 20
323.1820593849874
 30
0.0
  0
VERTEX
  5
53F
  8
LAYER_1
 10
1464.999882616297
 20
323.3244521842659
 30
0.0
  0
VERTEX
  5
540
  8
LAYER_1
 10
1462.590170017556
 20
323.4779487330735
 30
0.0
  0
VERTEX
  5
541
  8
LAYER_1
 10
1460.179110609691
 20
323.6425290670905
 30
0.0
  0
VERTEX
  5
542
  8
LAYER_1
 10
1457.766876048497
 20
323.8181732219971
 30
0.0
  0
VERTEX
  5
543
  8
LAYER_1
 10
1455.353637989772
 20
324.0048612334734
 30
0.0
  0
VERTEX
  5
544
  8
LAYER_1
 10
1452.939568089312
 20
324.2025731371999
 30
0.0
  0
VERTEX
  5
545
  8
LAYER_1
 10
1450.524838002916
 20
324.4112889688565
 30
0.0
  0
VERTEX
  5
546
  8
LAYER_1
 10
1448.109619386379
 20
324.6309887641237
 30
0.0
  0
VERTEX
  5
547
  8
LAYER_1
 10
1445.6940838955
 20
324.8616525586815
 30
0.0
  0
VERTEX
  5
548
  8
LAYER_1
 10
1443.278403186074
 20
325.1032603882103
 30
0.0
  0
VERTEX
  5
549
  8
LAYER_1
 10
1440.862748913899
 20
325.3557922883903
 30
0.0
  0
VERTEX
  5
54A
  8
LAYER_1
 10
1438.447292734772
 20
325.6192282949016
 30
0.0
  0
VERTEX
  5
54B
  8
LAYER_1
 10
1436.03220630449
 20
325.8935484434246
 30
0.0
  0
VERTEX
  5
54C
  8
LAYER_1
 10
1433.61766127885
 20
326.1787327696394
 30
0.0
  0
VERTEX
  5
54D
  8
LAYER_1
 10
1431.203829313649
 20
326.4747613092263
 30
0.0
  0
VERTEX
  5
54E
  8
LAYER_1
 10
1428.790882064684
 20
326.7816140978655
 30
0.0
  0
VERTEX
  5
54F
  8
LAYER_1
 10
1426.378991187752
 20
327.0992711712371
 30
0.0
  0
VERTEX
  5
550
  8
LAYER_1
 10
1423.96832833865
 20
327.4277125650216
 30
0.0
  0
VERTEX
  5
551
  8
LAYER_1
 10
1421.559065173175
 20
327.7669183148989
 30
0.0
  0
VERTEX
  5
552
  8
LAYER_1
 10
1419.151373347125
 20
328.1168684565495
 30
0.0
  0
VERTEX
  5
553
  8
LAYER_1
 10
1416.745424516295
 20
328.4775430256535
 30
0.0
  0
VERTEX
  5
554
  8
LAYER_1
 10
1414.341390336484
 20
328.8489220578911
 30
0.0
  0
VERTEX
  5
555
  8
LAYER_1
 10
1411.939442463488
 20
329.2309855889425
 30
0.0
  0
VERTEX
  5
556
  8
LAYER_1
 10
1409.539752553104
 20
329.6237136544881
 30
0.0
  0
VERTEX
  5
557
  8
LAYER_1
 10
1407.14249226113
 20
330.027086290208
 30
0.0
  0
VERTEX
  5
558
  8
LAYER_1
 10
1404.747833243361
 20
330.4410835317824
 30
0.0
  0
VERTEX
  5
559
  8
LAYER_1
 10
1402.355947155596
 20
330.8656854148915
 30
0.0
  0
VERTEX
  5
55A
  8
LAYER_1
 10
1399.967005653631
 20
331.3008719752157
 30
0.0
  0
VERTEX
  5
55B
  8
LAYER_1
 10
1397.581180393263
 20
331.7466232484351
 30
0.0
  0
VERTEX
  5
55C
  8
LAYER_1
 10
1395.19864303029
 20
332.2029192702298
 30
0.0
  0
VERTEX
  5
55D
  8
LAYER_1
 10
1392.819565220508
 20
332.6697400762803
 30
0.0
  0
VERTEX
  5
55E
  8
LAYER_1
 10
1390.444118619715
 20
333.1470657022666
 30
0.0
  0
VERTEX
  5
55F
  8
LAYER_1
 10
1388.072474883706
 20
333.6348761838691
 30
0.0
  0
VERTEX
  5
560
  8
LAYER_1
 10
1385.704805668281
 20
334.1331515567679
 30
0.0
  0
VERTEX
  5
561
  8
LAYER_1
 10
1383.341282629234
 20
334.6418718566432
 30
0.0
  0
VERTEX
  5
562
  8
LAYER_1
 10
1380.982077422364
 20
335.1610171191753
 30
0.0
  0
VERTEX
  5
563
  8
LAYER_1
 10
1378.627361703468
 20
335.6905673800445
 30
0.0
  0
VERTEX
  5
564
  8
LAYER_1
 10
1376.277307128342
 20
336.2305026749308
 30
0.0
  0
VERTEX
  5
565
  8
LAYER_1
 10
1373.932085352784
 20
336.7808030395147
 30
0.0
  0
VERTEX
  5
566
  8
LAYER_1
 10
1371.59186803259
 20
337.3414485094763
 30
0.0
  0
VERTEX
  5
567
  8
LAYER_1
 10
1369.256826823558
 20
337.9124191204957
 30
0.0
  0
VERTEX
  5
568
  8
LAYER_1
 10
1366.927133381485
 20
338.4936949082532
 30
0.0
  0
VERTEX
  5
569
  8
LAYER_1
 10
1364.602959362166
 20
339.0852559084292
 30
0.0
  0
VERTEX
  5
56A
  8
LAYER_1
 10
1362.284476421401
 20
339.6870821567038
 30
0.0
  0
VERTEX
  5
56B
  8
LAYER_1
 10
1359.971856214985
 20
340.2991536887571
 30
0.0
  0
VERTEX
  5
56C
  8
LAYER_1
 10
1357.665270398716
 20
340.9214505402695
 30
0.0
  0
VERTEX
  5
56D
  8
LAYER_1
 10
1355.364890628391
 20
341.5539527469211
 30
0.0
  0
VERTEX
  5
56E
  8
LAYER_1
 10
1353.070888559806
 20
342.1966403443922
 30
0.0
  0
VERTEX
  5
56F
  8
LAYER_1
 10
1350.783435848759
 20
342.849493368363
 30
0.0
  0
VERTEX
  5
570
  8
LAYER_1
 10
1348.502704151047
 20
343.5124918545138
 30
0.0
  0
VERTEX
  5
571
  8
LAYER_1
 10
1346.228865122466
 20
344.1856158385247
 30
0.0
  0
VERTEX
  5
572
  8
LAYER_1
 10
1343.962090418815
 20
344.868845356076
 30
0.0
  0
VERTEX
  5
573
  8
LAYER_1
 10
1341.702551695889
 20
345.5621604428479
 30
0.0
  0
VERTEX
  5
574
  8
LAYER_1
 10
1339.450420609486
 20
346.2655411345207
 30
0.0
  0
VERTEX
  5
575
  8
LAYER_1
 10
1337.205868815403
 20
346.9789674667745
 30
0.0
  0
VERTEX
  5
576
  8
LAYER_1
 10
1334.969067969437
 20
347.7024194752896
 30
0.0
  0
VERTEX
  5
577
  8
LAYER_1
 10
1332.740189727384
 20
348.4358771957461
 30
0.0
  0
VERTEX
  5
578
  8
LAYER_1
 10
1330.519405745043
 20
349.1793206638245
 30
0.0
  0
VERTEX
  5
579
  8
LAYER_1
 10
1328.306887678209
 20
349.9327299152047
 30
0.0
  0
VERTEX
  5
57A
  8
LAYER_1
 10
1326.102807182681
 20
350.6960849855673
 30
0.0
  0
VERTEX
  5
57B
  8
LAYER_1
 10
1323.907335914254
 20
351.4693659105922
 30
0.0
  0
VERTEX
  5
57C
  8
LAYER_1
 10
1321.720645528727
 20
352.2525527259597
 30
0.0
  0
VERTEX
  5
57D
  8
LAYER_1
 10
1319.542907681895
 20
353.0456254673501
 30
0.0
  0
VERTEX
  5
57E
  8
LAYER_1
 10
1317.374294029557
 20
353.8485641704435
 30
0.0
  0
VERTEX
  5
57F
  8
LAYER_1
 10
1315.214976227509
 20
354.6613488709203
 30
0.0
  0
VERTEX
  5
580
  8
LAYER_1
 10
1313.065125931547
 20
355.4839596044606
 30
0.0
  0
VERTEX
  5
581
  8
LAYER_1
 10
1310.92491479747
 20
356.3163764067447
 30
0.0
  0
VERTEX
  5
582
  8
LAYER_1
 10
1308.794514481074
 20
357.1585793134527
 30
0.0
  0
VERTEX
  5
583
  8
LAYER_1
 10
1306.674096638157
 20
358.010548360265
 30
0.0
  0
VERTEX
  5
584
  8
LAYER_1
 10
1304.563832924514
 20
358.8722635828618
 30
0.0
  0
VERTEX
  5
585
  8
LAYER_1
 10
1302.463894995944
 20
359.7437050169231
 30
0.0
  0
VERTEX
  5
586
  8
LAYER_1
 10
1300.374454508242
 20
360.6248526981293
 30
0.0
  0
VERTEX
  5
587
  8
LAYER_1
 10
1298.295683117207
 20
361.5156866621606
 30
0.0
  0
VERTEX
  5
588
  8
LAYER_1
 10
1296.227752478635
 20
362.4161869446973
 30
0.0
  0
VERTEX
  5
589
  8
LAYER_1
 10
1294.170834248324
 20
363.3263335814195
 30
0.0
  0
VERTEX
  5
58A
  8
LAYER_1
 10
1292.12510008207
 20
364.2461066080076
 30
0.0
  0
VERTEX
  5
58B
  8
LAYER_1
 10
1290.09072163567
 20
365.1754860601416
 30
0.0
  0
VERTEX
  5
58C
  8
LAYER_1
 10
1288.067870564921
 20
366.1144519735018
 30
0.0
  0
VERTEX
  5
58D
  8
LAYER_1
 10
1286.056718525621
 20
367.0629843837685
 30
0.0
  0
VERTEX
  5
58E
  8
LAYER_1
 10
1284.057437173567
 20
368.0210633266219
 30
0.0
  0
VERTEX
  5
58F
  8
LAYER_1
 10
1282.070198164554
 20
368.9886688377422
 30
0.0
  0
VERTEX
  5
590
  8
LAYER_1
 10
1280.095173154381
 20
369.9657809528096
 30
0.0
  0
VERTEX
  5
591
  8
LAYER_1
 10
1278.132533798845
 20
370.9523797075044
 30
0.0
  0
VERTEX
  5
592
  8
LAYER_1
 10
1276.182451753742
 20
371.9484451375067
 30
0.0
  0
VERTEX
  5
593
  8
LAYER_1
 10
1274.24509867487
 20
372.9539572784969
 30
0.0
  0
VERTEX
  5
594
  8
LAYER_1
 10
1272.320646218025
 20
373.9688961661552
 30
0.0
  0
VERTEX
  5
595
  8
LAYER_1
 10
1270.409266039004
 20
374.9932418361616
 30
0.0
  0
VERTEX
  5
596
  8
LAYER_1
 10
1268.511129793606
 20
376.0269743241967
 30
0.0
  0
VERTEX
  5
597
  8
LAYER_1
 10
1266.626409137625
 20
377.0700736659403
 30
0.0
  0
VERTEX
  5
598
  8
LAYER_1
 10
1264.755275726861
 20
378.1225198970728
 30
0.0
  0
VERTEX
  5
599
  8
LAYER_1
 10
1262.897901217109
 20
379.1842930532746
 30
0.0
  0
VERTEX
  5
59A
  8
LAYER_1
 10
1261.054457264167
 20
380.2553731702257
 30
0.0
  0
VERTEX
  5
59B
  8
LAYER_1
 10
1259.225115523831
 20
381.3357402836065
 30
0.0
  0
VERTEX
  5
59C
  8
LAYER_1
 10
1257.410047651899
 20
382.425374429097
 30
0.0
  0
VERTEX
  5
59D
  8
LAYER_1
 10
1255.609425304167
 20
383.5242556423776
 30
0.0
  0
VERTEX
  5
59E
  8
LAYER_1
 10
1253.823420136434
 20
384.6323639591286
 30
0.0
  0
VERTEX
  5
59F
  8
LAYER_1
 10
1252.052203804495
 20
385.74967941503
 30
0.0
  0
VERTEX
  5
5A0
  8
LAYER_1
 10
1250.295947964148
 20
386.8761820457621
 30
0.0
  0
VERTEX
  5
5A1
  8
LAYER_1
 10
1248.55482427119
 20
388.0118518870052
 30
0.0
  0
VERTEX
  5
5A2
  8
LAYER_1
 10
1246.829004381417
 20
389.1566689744394
 30
0.0
  0
VERTEX
  5
5A3
  8
LAYER_1
 10
1245.118659950628
 20
390.3106133437451
 30
0.0
  0
VERTEX
  5
5A4
  8
LAYER_1
 10
1243.423962634618
 20
391.4736650306024
 30
0.0
  0
VERTEX
  5
5A5
  8
LAYER_1
 10
1241.745084089185
 20
392.6458040706916
 30
0.0
  0
VERTEX
  5
5A6
  8
LAYER_1
 10
1240.082195970126
 20
393.8270104996928
 30
0.0
  0
VERTEX
  5
5A7
  8
LAYER_1
 10
1238.435469933238
 20
395.0172643532864
 30
0.0
  0
VERTEX
  5
5A8
  8
LAYER_1
 10
1236.805077634318
 20
396.2165456671525
 30
0.0
  0
VERTEX
  5
5A9
  8
LAYER_1
 10
1235.191190729163
 20
397.4248344769713
 30
0.0
  0
VERTEX
  5
5AA
  8
LAYER_1
 10
1233.59398087357
 20
398.6421108184232
 30
0.0
  0
VERTEX
  5
5AB
  8
LAYER_1
 10
1232.013619723336
 20
399.8683547271883
 30
0.0
  0
VERTEX
  5
5AC
  8
LAYER_1
 10
1230.450278934258
 20
401.1035462389468
 30
0.0
  0
VERTEX
  5
5AD
  8
LAYER_1
 10
1228.904130162133
 20
402.3476653893788
 30
0.0
  0
VERTEX
  5
5AE
  8
LAYER_1
 10
1227.375345062758
 20
403.6006922141648
 30
0.0
  0
VERTEX
  5
5AF
  8
LAYER_1
 10
1225.86409529193
 20
404.8626067489849
 30
0.0
  0
VERTEX
  5
5B0
  8
LAYER_1
 10
1224.370552505446
 20
406.1333890295194
 30
0.0
  0
VERTEX
  5
5B1
  8
LAYER_1
 10
1222.894888359104
 20
407.4130190914484
 30
0.0
  0
VERTEX
  5
5B2
  8
LAYER_1
 10
1221.437274508699
 20
408.7014769704522
 30
0.0
  0
VERTEX
  5
5B3
  8
LAYER_1
 10
1219.99788261003
 20
409.9987427022109
 30
0.0
  0
VERTEX
  5
5B4
  8
LAYER_1
 10
1218.576884318893
 20
411.3047963224049
 30
0.0
  0
VERTEX
  5
5B5
  8
LAYER_1
 10
1217.174451291085
 20
412.6196178667144
 30
0.0
  0
VERTEX
  5
5B6
  8
LAYER_1
 10
1215.790755182403
 20
413.9431873708195
 30
0.0
  0
VERTEX
  5
5B7
  8
LAYER_1
 10
1214.425967648645
 20
415.2754848704006
 30
0.0
  0
VERTEX
  5
5B8
  8
LAYER_1
 10
1213.080260345607
 20
416.6164904011378
 30
0.0
  0
VERTEX
  5
5B9
  8
LAYER_1
 10
1211.753804929086
 20
417.9661839987112
 30
0.0
  0
VERTEX
  5
5BA
  8
LAYER_1
 10
1210.446773054879
 20
419.3245456988014
 30
0.0
  0
VERTEX
  5
5BB
  8
LAYER_1
 10
1209.159336378784
 20
420.6915555370883
 30
0.0
  0
VERTEX
  5
5BC
  8
LAYER_1
 10
1207.891666556598
 20
422.0671935492522
 30
0.0
  0
VERTEX
  5
5BD
  8
LAYER_1
 10
1206.643935244116
 20
423.4514397709734
 30
0.0
  0
VERTEX
  5
5BE
  8
LAYER_1
 10
1205.416314097137
 20
424.844274237932
 30
0.0
  0
VERTEX
  5
5BF
  8
LAYER_1
 10
1204.208974771458
 20
426.2456769858084
 30
0.0
  0
VERTEX
  5
5C0
  8
LAYER_1
 10
1203.022088922875
 20
427.6556280502828
 30
0.0
  0
VERTEX
  5
5C1
  8
LAYER_1
 10
1201.855828207185
 20
429.0741074670352
 30
0.0
  0
VERTEX
  5
5C2
  8
LAYER_1
 10
1200.710364280186
 20
430.501095271746
 30
0.0
  0
VERTEX
  5
5C3
  8
LAYER_1
 10
1199.585868797674
 20
431.9365715000954
 30
0.0
  0
VERTEX
  5
5C4
  8
LAYER_1
 10
1198.482513415448
 20
433.3805161877637
 30
0.0
  0
VERTEX
  5
5C5
  8
LAYER_1
 10
1197.400469789302
 20
434.832909370431
 30
0.0
  0
VERTEX
  5
5C6
  8
LAYER_1
 10
1196.339909575035
 20
436.2937310837776
 30
0.0
  0
VERTEX
  5
5C7
  8
LAYER_1
 10
1195.301004428444
 20
437.7629613634838
 30
0.0
  0
VERTEX
  5
5C8
  8
LAYER_1
 10
1194.283926005325
 20
439.2405802452296
 30
0.0
  0
VERTEX
  5
5C9
  8
LAYER_1
 10
1193.288845961476
 20
440.7265677646953
 30
0.0
  0
VERTEX
  5
5CA
  8
LAYER_1
 10
1192.315935952694
 20
442.2209039575613
 30
0.0
  0
VERTEX
  5
5CB
  8
LAYER_1
 10
1191.365367634775
 20
443.7235688595076
 30
0.0
  0
VERTEX
  5
5CC
  8
LAYER_1
 10
1190.437312663517
 20
445.2345425062147
 30
0.0
  0
VERTEX
  5
5CD
  8
LAYER_1
 10
1189.531942694717
 20
446.7538049333625
 30
0.0
  0
VERTEX
  5
5CE
  8
LAYER_1
 10
1188.649429384171
 20
448.2813361766314
 30
0.0
  0
VERTEX
  5
5CF
  8
LAYER_1
 10
1187.789944387678
 20
449.8171162717017
 30
0.0
  0
VERTEX
  5
5D0
  8
LAYER_1
 10
1186.953659361033
 20
451.3611252542535
 30
0.0
  0
VERTEX
  5
5D1
  8
LAYER_1
 10
1186.140745960033
 20
452.9133431599669
 30
0.0
  0
VERTEX
  5
5D2
  8
LAYER_1
 10
1185.351375840477
 20
454.4737500245224
 30
0.0
  0
VERTEX
  5
5D3
  8
LAYER_1
 10
1184.585720658161
 20
456.0423258836001
 30
0.0
  0
VERTEX
  5
5D4
  8
LAYER_1
 10
1183.843952068881
 20
457.6190507728802
 30
0.0
  0
VERTEX
  5
5D5
  8
LAYER_1
 10
1183.126241728436
 20
459.203904728043
 30
0.0
  0
VERTEX
  5
5D6
  8
LAYER_1
 10
1182.432761292621
 20
460.7968677847686
 30
0.0
  0
VERTEX
  5
5D7
  8
LAYER_1
 10
1181.763682417234
 20
462.3979199787374
 30
0.0
  0
VERTEX
  5
5D8
  8
LAYER_1
 10
1181.119176758072
 20
464.0070413456294
 30
0.0
  0
VERTEX
  5
5D9
  8
LAYER_1
 10
1180.499415970932
 20
465.624211921125
 30
0.0
  0
VERTEX
  5
5DA
  8
LAYER_1
 10
1179.904571711611
 20
467.2494117409045
 30
0.0
  0
VERTEX
  5
5DB
  8
LAYER_1
 10
1179.334815635907
 20
468.8826208406479
 30
0.0
  0
VERTEX
  5
5DC
  8
LAYER_1
 10
1178.790319399615
 20
470.5238192560355
 30
0.0
  0
VERTEX
  5
5DD
  8
LAYER_1
 10
1178.271254658534
 20
472.1729870227476
 30
0.0
  0
VERTEX
  5
5DE
  8
LAYER_1
 10
1177.777793068459
 20
473.8301041764644
 30
0.0
  0
VERTEX
  5
5DF
  8
LAYER_1
 10
1177.310106285188
 20
475.4951507528661
 30
0.0
  0
VERTEX
  5
5E0
  8
LAYER_1
 10
1176.868365964519
 20
477.1681067876328
 30
0.0
  0
VERTEX
  5
5E1
  8
LAYER_1
 10
1176.452743762248
 20
478.848952316445
 30
0.0
  0
VERTEX
  5
5E2
  8
LAYER_1
 10
1176.063411334172
 20
480.5376673749827
 30
0.0
  0
VERTEX
  5
5E3
  8
LAYER_1
 10
1175.700540336088
 20
482.2342319989262
 30
0.0
  0
VERTEX
  5
5E4
  8
LAYER_1
 10
1175.364302423793
 20
483.9386262239557
 30
0.0
  0
VERTEX
  5
5E5
  8
LAYER_1
 10
1175.054869253085
 20
485.6508300857515
 30
0.0
  0
VERTEX
  5
5E6
  8
LAYER_1
 10
1174.77241247976
 20
487.3708236199938
 30
0.0
  0
VERTEX
  5
5E7
  8
LAYER_1
 10
1174.517103759615
 20
489.0985868623628
 30
0.0
  0
VERTEX
  5
5E8
  8
LAYER_1
 10
1174.289114748447
 20
490.8340998485386
 30
0.0
  0
VERTEX
  5
5E9
  8
LAYER_1
 10
1174.088617102054
 20
492.5773426142017
 30
0.0
  0
VERTEX
  5
5EA
  8
LAYER_1
 10
1173.915782476232
 20
494.3282951950321
 30
0.0
  0
VERTEX
  5
5EB
  8
LAYER_1
 10
1173.770782526778
 20
496.0869376267101
 30
0.0
  0
VERTEX
  5
5EC
  8
LAYER_1
 10
1173.65378890949
 20
497.8532499449159
 30
0.0
  0
VERTEX
  5
5ED
  8
LAYER_1
 10
1173.564973280165
 20
499.6272121853298
 30
0.0
  0
VERTEX
  5
5EE
  8
LAYER_1
 10
1173.442355847028
 20
502.350762532817
 30
0.0
  0
VERTEX
  5
5EF
  8
LAYER_1
 10
1173.238511792819
 20
507.3502771960364
 30
0.0
  0
VERTEX
  5
5F0
  8
LAYER_1
 10
1172.634428766039
 20
522.8827290640936
 30
0.0
  0
VERTEX
  5
5F1
  8
LAYER_1
 10
1171.847294089529
 20
543.6356269783442
 30
0.0
  0
VERTEX
  5
5F2
  8
LAYER_1
 10
1170.971677652995
 20
567.0200301276312
 30
0.0
  0
VERTEX
  5
5F3
  8
LAYER_1
 10
1169.333279058668
 20
611.3275888866847
 30
0.0
  0
VERTEX
  5
5F4
  8
LAYER_1
 10
1168.759636680285
 20
627.072862874137
 30
0.0
  0
VERTEX
  5
5F5
  8
LAYER_1
 10
1168.475792100694
 20
635.0938788519965
 30
0.0
  0
VERTEX
  5
5F6
  8
LAYER_1
 10
872.954209391276
 20
635.0938788519965
 30
0.0
  0
VERTEX
  5
5F7
  8
LAYER_1
 10
872.954209391276
 20
745.521849907769
 30
0.0
  0
VERTEX
  5
5F8
  8
LAYER_1
 10
872.7337232801649
 20
745.9006381564669
 30
0.0
  0
VERTEX
  5
5F9
  8
LAYER_1
 10
872.7337232801649
 20
990.5259304470485
 30
0.0
  0
VERTEX
  5
5FA
  8
LAYER_1
 10
859.2874481812801
 20
990.6849505548935
 30
0.0
  0
VERTEX
  5
5FB
  8
LAYER_1
 10
845.841293926255
 20
990.8341408923682
 30
0.0
  0
VERTEX
  5
5FC
  8
LAYER_1
 10
832.395256457416
 20
990.9737328230041
 30
0.0
  0
VERTEX
  5
5FD
  8
LAYER_1
 10
818.9493317170895
 20
991.1039577103322
 30
0.0
  0
VERTEX
  5
5FE
  8
LAYER_1
 10
805.5035156476022
 20
991.225046917884
 30
0.0
  0
VERTEX
  5
5FF
  8
LAYER_1
 10
792.0578041912806
 20
991.3372318091906
 30
0.0
  0
VERTEX
  5
600
  8
LAYER_1
 10
778.6121932904509
 20
991.440743747783
 30
0.0
  0
VERTEX
  5
601
  8
LAYER_1
 10
765.1666788874401
 20
991.5358140971925
 30
0.0
  0
VERTEX
  5
602
  8
LAYER_1
 10
751.7212569245743
 20
991.6226742209504
 30
0.0
  0
VERTEX
  5
603
  8
LAYER_1
 10
738.2759233441799
 20
991.7015554825879
 30
0.0
  0
VERTEX
  5
604
  8
LAYER_1
 10
711.3855051001119
 20
991.8363068736262
 30
0.0
  0
VERTEX
  5
605
  8
LAYER_1
 10
684.4953916938483
 20
991.941919178557
 30
0.0
  0
VERTEX
  5
606
  8
LAYER_1
 10
657.605550664001
 20
992.0202433056301
 30
0.0
  0
VERTEX
  5
607
  8
LAYER_1
 10
630.7159495491819
 20
992.0731301630949
 30
0.0
  0
VERTEX
  5
608
  8
LAYER_1
 10
603.826555888003
 20
992.1024306592013
 30
0.0
  0
VERTEX
  5
609
  8
LAYER_1
 10
576.9373372190762
 20
992.1099957021987
 30
0.0
  0
VERTEX
  5
60A
  8
LAYER_1
 10
550.0482610810134
 20
992.0976762003368
 30
0.0
  0
VERTEX
  5
60B
  8
LAYER_1
 10
523.1592950124268
 20
992.0673230618652
 30
0.0
  0
VERTEX
  5
60C
  8
LAYER_1
 10
496.2704065519282
 20
992.0207871950333
 30
0.0
  0
VERTEX
  5
60D
  8
LAYER_1
 10
469.3815632381295
 20
991.9599195080912
 30
0.0
  0
VERTEX
  5
60E
  8
LAYER_1
 10
442.4927326096429
 20
991.8865709092881
 30
0.0
  0
VERTEX
  5
60F
  8
LAYER_1
 10
415.6038822050801
 20
991.802592306874
 30
0.0
  0
VERTEX
  5
610
  8
LAYER_1
 10
388.7149795630532
 20
991.7098346090979
 30
0.0
  0
VERTEX
  5
611
  8
LAYER_1
 10
334.9368877210551
 20
991.5053855604594
 30
0.0
  0
VERTEX
  5
612
  8
LAYER_1
 10
281.158197392544
 20
991.2880310293699
 30
0.0
  0
VERTEX
  5
613
  8
LAYER_1
 10
227.3786488864157
 20
991.0725782818263
 30
0.0
  0
VERTEX
  5
614
  8
LAYER_1
 10
173.5979825115659
 20
990.8738345838253
 30
0.0
  0
VERTEX
  5
615
  8
LAYER_1
 10
146.7071489699004
 20
990.7853558990275
 30
0.0
  0
VERTEX
  5
616
  8
LAYER_1
 10
119.8159385768904
 20
990.7066072013641
 30
0.0
  0
VERTEX
  5
617
  8
LAYER_1
 10
92.92431887114782
 20
990.639439399085
 30
0.0
  0
VERTEX
  5
618
  8
LAYER_1
 10
66.03225739128473
 20
990.5857034004396
 30
0.0
  0
VERTEX
  5
619
  8
LAYER_1
 10
39.13972167591305
 20
990.5472501136776
 30
0.0
  0
SEQEND
  5
61A
  8
LAYER_1
  0
ENDSEC
  0
EOF
